<svg width="24" height="24" viewBox="0 0 24 24" fill="none" xmlns="http://www.w3.org/2000/svg">
<path d="M19.07 19.07C20.88 17.26 22 14.76 22 12C22 9.24 20.88 6.73999 19.07 4.92999C17.26 3.11999 14.76 2 12 2C6.48 2 2 6.48 2 12C2 14.76 3.11999 17.26 4.92999 19.07C6.73999 20.88 9.24 22 12 22C14.76 22 17.26 20.88 19.07 19.07ZM11.28 15.35L8.85999 10.63C8.79999 10.52 8.76999 10.39 8.76999 10.26C8.76999 10.12 8.81001 9.97 8.89001 9.84C9.04001 9.6 9.29999 9.45001 9.57999 9.45001L14.42 9.45001C14.7 9.45001 14.96 9.6 15.11 9.84C15.26 10.08 15.27 10.38 15.14 10.63L12.72 15.35C12.58 15.63 12.31 15.79 12 15.79C11.69 15.79 11.42 15.63 11.28 15.35Z" fill="#FFFFFF"/>
</svg>
