<svg width="17" height="17" viewBox="0 0 17 17" fill="none" xmlns="http://www.w3.org/2000/svg">
<circle cx="8.5" cy="8.5" r="8.5" fill="white"/>
<path d="M8.94434 9.82715H7.69922C7.70247 9.53418 7.72526 9.2819 7.76758 9.07031C7.81315 8.85547 7.88965 8.66178 7.99707 8.48926C8.10775 8.31673 8.25423 8.14583 8.43652 7.97656C8.58952 7.83984 8.72298 7.70964 8.83691 7.58594C8.95085 7.46224 9.04036 7.33529 9.10547 7.20508C9.17057 7.07161 9.20312 6.9235 9.20312 6.76074C9.20312 6.57194 9.17383 6.41569 9.11523 6.29199C9.0599 6.16504 8.97526 6.06901 8.86133 6.00391C8.75065 5.9388 8.61068 5.90625 8.44141 5.90625C8.30143 5.90625 8.17122 5.93717 8.05078 5.99902C7.93034 6.05762 7.83105 6.14876 7.75293 6.27246C7.67806 6.39616 7.639 6.55892 7.63574 6.76074H6.21973C6.22949 6.31478 6.33203 5.94694 6.52734 5.65723C6.72591 5.36426 6.99121 5.14779 7.32324 5.00781C7.65527 4.86458 8.02799 4.79297 8.44141 4.79297C8.89714 4.79297 9.28776 4.86784 9.61328 5.01758C9.9388 5.16406 10.1878 5.38053 10.3604 5.66699C10.5329 5.9502 10.6191 6.29525 10.6191 6.70215C10.6191 6.98535 10.5638 7.23763 10.4531 7.45898C10.3424 7.67708 10.1976 7.88053 10.0186 8.06934C9.83952 8.25814 9.64258 8.45345 9.42773 8.65527C9.24219 8.82129 9.11523 8.99544 9.04688 9.17773C8.98177 9.36003 8.94759 9.5765 8.94434 9.82715ZM7.55273 11.3359C7.55273 11.1276 7.62435 10.9551 7.76758 10.8184C7.91081 10.6784 8.10286 10.6084 8.34375 10.6084C8.58138 10.6084 8.77181 10.6784 8.91504 10.8184C9.06152 10.9551 9.13477 11.1276 9.13477 11.3359C9.13477 11.5378 9.06152 11.7087 8.91504 11.8486C8.77181 11.9886 8.58138 12.0586 8.34375 12.0586C8.10286 12.0586 7.91081 11.9886 7.76758 11.8486C7.62435 11.7087 7.55273 11.5378 7.55273 11.3359Z" fill="#E9967A"/>
</svg>
