<svg width="33" height="34" viewBox="0 0 33 34" fill="none" xmlns="http://www.w3.org/2000/svg">
<g clip-path="url(#clip0_101_47)">
<path d="M21.3136 19.4509H20.2291L19.8448 19.0802C21.1901 17.5152 22 15.4836 22 13.2734C22 8.34516 18.0053 4.3504 13.077 4.3504C8.14878 4.3504 4.15402 8.34516 4.15402 13.2734C4.15402 18.2016 8.14878 22.1964 13.077 22.1964C15.2872 22.1964 17.3189 21.3865 18.8838 20.0411L19.2545 20.4255V21.51L26.1183 28.3601L28.1637 26.3147L21.3136 19.4509V19.4509ZM13.077 19.4509C9.65882 19.4509 6.89956 16.6916 6.89956 13.2734C6.89956 9.8552 9.65882 7.09594 13.077 7.09594C16.4952 7.09594 19.2545 9.8552 19.2545 13.2734C19.2545 16.6916 16.4952 19.4509 13.077 19.4509Z" fill="#435B5C"/>
</g>
<defs>
<clipPath id="clip0_101_47">
<rect x="0.0357056" y="0.232117" width="32.9464" height="32.9464" rx="15" fill="white"/>
</clipPath>
</defs>
</svg>
