<svg width="24" height="24" viewBox="0 0 24 24" fill="none" xmlns="http://www.w3.org/2000/svg">
<path d="M12 2C10.0222 2 8.08879 2.58649 6.4443 3.6853C4.79981 4.78412 3.51809 6.3459 2.76121 8.17317C2.00433 10.0004 1.8063 12.0111 2.19215 13.9509C2.578 15.8907 3.53041 17.6725 4.92894 19.0711C6.32746 20.4696 8.10929 21.422 10.0491 21.8079C11.9889 22.1937 13.9996 21.9957 15.8268 21.2388C17.6541 20.4819 19.2159 19.2002 20.3147 17.5557C21.4135 15.9112 22 13.9778 22 12C22 9.34784 20.9464 6.8043 19.0711 4.92893C17.1957 3.05357 14.6522 2 12 2V2ZM17.48 15.74C17.1218 15.8178 16.7565 15.858 16.39 15.86C16.1292 15.8609 15.872 15.7991 15.64 15.68C15.5623 15.6255 15.4888 15.5654 15.42 15.5C15.1816 15.2919 14.9071 15.1292 14.61 15.02C14.2807 14.9253 13.93 14.9361 13.6072 15.0508C13.2844 15.1656 13.0056 15.3787 12.81 15.66C12.7024 15.8362 12.6151 16.0241 12.55 16.22C12.55 16.29 12.48 16.41 12.46 16.44C12.3565 16.5032 12.2457 16.5536 12.13 16.59L11.87 16.7C11.3911 16.9135 10.9807 17.2554 10.6841 17.6878C10.3876 18.1203 10.2166 18.6263 10.19 19.15C10.19 19.48 10.19 19.81 10.19 20.15V20.32C8.39107 19.9276 6.76739 18.9637 5.56157 17.5722C4.35576 16.1807 3.63255 14.4365 3.5 12.6C4.31013 12.856 5.17517 12.8837 6 12.68C6.36138 12.6011 6.73012 12.5609 7.1 12.56C7.35911 12.557 7.61439 12.6226 7.84 12.75L8.07 12.92C8.30535 13.1323 8.58073 13.2955 8.88 13.4C9.02647 13.4409 9.17794 13.4611 9.33 13.46C9.59452 13.4593 9.85505 13.3954 10.0899 13.2737C10.3247 13.1519 10.527 12.9758 10.68 12.76C10.7876 12.5838 10.8749 12.3959 10.94 12.2C10.9508 12.1309 10.971 12.0636 11 12C11.1025 11.9348 11.2135 11.8843 11.33 11.85L11.58 11.74C12.0589 11.5265 12.4694 11.1846 12.7659 10.7522C13.0624 10.3197 13.2334 9.81366 13.26 9.29C13.28 8.95697 13.28 8.62303 13.26 8.29V7.98C13.26 7.88 13.26 7.76 13.26 7.65C13.2864 7.35248 13.2696 7.05269 13.21 6.76C13.1517 6.52831 13.0608 6.30609 12.94 6.1C12.8846 6.00434 12.8377 5.90394 12.8 5.8C12.7832 5.76576 12.7745 5.72813 12.7745 5.69C12.7745 5.65187 12.7832 5.61424 12.8 5.58C12.9068 5.47914 13.0282 5.39488 13.16 5.33C13.4152 5.1882 13.6505 5.01336 13.86 4.81C14.1063 4.53445 14.2995 4.21577 14.43 3.87C15.6142 4.22089 16.7077 4.82594 17.634 5.64295C18.5603 6.45996 19.2972 7.46923 19.7932 8.60037C20.2893 9.73151 20.5326 10.9573 20.5061 12.1921C20.4797 13.427 20.1841 14.6412 19.64 15.75C18.9288 15.5943 18.1926 15.5909 17.48 15.74Z" fill="#435B5C" fill-opacity="0.7"/>
</svg>
