<svg width="226" height="106" viewBox="0 0 226 106" fill="none" xmlns="http://www.w3.org/2000/svg">
<g id="logo">
<ellipse id="fill2" cx="39.5" cy="72" rx="3.5" ry="5" fill="#E9967A"/>
<g id="logo-text">
<path d="M26.4033 17.8164C26.4033 21.7129 24.6097 24.4033 21.0225 25.8877L26.0137 36H22.0244L17.5156 26.8525C16.291 27.0381 15.0107 27.1309 13.6748 27.1309H6.84668V36H3.41406V9.72656H14.1943C18.0785 9.72656 20.9792 10.2585 22.8965 11.3223C25.2344 12.6087 26.4033 14.7734 26.4033 17.8164ZM14.1387 24.0137C16.9095 24.0137 18.9629 23.6302 20.2988 22.8633C21.944 21.9108 22.7666 20.3027 22.7666 18.0391C22.7666 15.0951 20.8617 13.4251 17.0518 13.0293C15.9508 12.9056 14.819 12.8438 13.6562 12.8438H6.84668V24.0137H14.1387ZM46.1455 34.2002C44.4385 35.6475 42.3727 36.3711 39.9482 36.3711C36.9795 36.3711 34.8581 35.5856 33.584 34.0146C32.3841 32.555 31.7842 30.2419 31.7842 27.0752V17.4453H35.3096V26.8525C35.3096 29.0049 35.6312 30.5882 36.2744 31.6025C37.029 32.8024 38.334 33.4023 40.1895 33.4023C42.082 33.4023 43.6468 32.8828 44.8838 31.8438C45.2673 31.5221 45.5889 31.1696 45.8486 30.7861V17.4453H49.374V36H46.6836L46.1455 34.2002ZM59.4492 19.2822C61.3913 17.8102 63.6178 17.0742 66.1289 17.0742C71.7695 17.0742 74.5898 20.1729 74.5898 26.3701V36H71.0645V26.5928C71.0645 24.4528 70.6934 22.8633 69.9512 21.8242C69.1224 20.6367 67.7679 20.043 65.8877 20.043C63.8714 20.043 62.1829 20.5378 60.8223 21.5273C60.377 21.8366 60.0182 22.1953 59.7461 22.6035V36H56.2207V17.4453H58.9111L59.4492 19.2822ZM84.2754 19.2822C86.2174 17.8102 88.444 17.0742 90.9551 17.0742C96.5957 17.0742 99.416 20.1729 99.416 26.3701V36H95.8906V26.5928C95.8906 24.4528 95.5195 22.8633 94.7773 21.8242C93.9486 20.6367 92.5941 20.043 90.7139 20.043C88.6976 20.043 87.0091 20.5378 85.6484 21.5273C85.2031 21.8366 84.8444 22.1953 84.5723 22.6035V36H81.0469V17.4453H83.7373L84.2754 19.2822ZM119.084 19.0781C119.74 19.7337 120.253 20.5625 120.624 21.5645C121.007 22.554 121.199 23.5993 121.199 24.7002C121.199 25.8011 121.076 27.0938 120.828 28.5781H107.914C108.186 30.0749 108.792 31.2562 109.732 32.1221C110.673 32.9756 112.002 33.4023 113.722 33.4023C116.022 33.4023 118.132 32.9818 120.049 32.1406L120.643 34.7939C119.368 35.5361 117.55 36.0247 115.188 36.2598C114.532 36.334 113.678 36.3711 112.627 36.3711C111.576 36.3711 110.475 36.1608 109.324 35.7402C108.174 35.3197 107.221 34.7012 106.467 33.8848C104.97 32.2643 104.222 29.8893 104.222 26.7598C104.222 24.0137 105.118 21.7129 106.912 19.8574C108.73 18.002 111 17.0742 113.722 17.0742C115.961 17.0742 117.748 17.7422 119.084 19.0781ZM117.841 25.8506L117.915 24.8486C117.915 22.585 117.068 21.082 115.373 20.3398C114.804 20.0924 114.124 19.9688 113.332 19.9688C112.54 19.9688 111.811 20.1234 111.143 20.4326C110.487 20.7419 109.918 21.1624 109.436 21.6943C108.446 22.7829 107.889 24.1683 107.766 25.8506H117.841ZM137.045 21.3232C136.29 20.8779 135.517 20.6553 134.726 20.6553C133.946 20.6553 133.297 20.8532 132.777 21.249C132.27 21.6449 131.825 22.1458 131.441 22.752C130.687 23.9147 130.18 25.2754 129.92 26.834V36H126.395V17.4453H129.308L129.901 20.8408C130.854 19.0967 132.072 17.9401 133.557 17.3711C134.089 17.1732 134.571 17.0742 135.004 17.0742C135.449 17.0742 135.777 17.0866 135.987 17.1113C136.198 17.1237 136.402 17.1484 136.6 17.1855C136.995 17.2845 137.41 17.4329 137.843 17.6309L137.045 21.3232ZM141.424 31.4541C142.883 32.4561 144.553 33.1117 146.434 33.4209C147.027 33.5199 147.584 33.5693 148.104 33.5693C148.623 33.5693 149.112 33.5199 149.569 33.4209C150.027 33.3219 150.441 33.1611 150.812 32.9385C151.604 32.4561 152 31.7633 152 30.8604C152 30.0687 151.419 29.4069 150.256 28.875C149.736 28.64 149.143 28.4173 148.475 28.207L146.434 27.5391C144.689 26.9453 143.483 26.3887 142.815 25.8691C142.16 25.3496 141.671 24.8115 141.35 24.2549C141.04 23.6982 140.886 23.0117 140.886 22.1953C140.886 21.3665 141.077 20.6305 141.461 19.9873C141.857 19.3317 142.382 18.7874 143.038 18.3545C144.325 17.501 145.815 17.0742 147.51 17.0742C150.553 17.0742 153.002 17.736 154.857 19.0596L153.484 21.6387C151.579 20.4635 149.631 19.876 147.64 19.876C146.242 19.876 145.258 20.278 144.689 21.082C144.504 21.3542 144.411 21.6943 144.411 22.1025C144.411 22.5107 144.566 22.8633 144.875 23.1602C145.197 23.457 145.617 23.723 146.137 23.958C146.656 24.1807 147.25 24.3971 147.918 24.6074L149.959 25.2383C151.691 25.8197 152.891 26.3763 153.559 26.9082C154.857 27.9473 155.507 29.1842 155.507 30.6191C155.507 32.487 154.721 33.9404 153.15 34.9795C151.753 35.9072 149.978 36.3711 147.825 36.3711C145.574 36.3711 143.539 35.9258 141.721 35.0352C141.115 34.7507 140.576 34.4105 140.106 34.0146L141.424 31.4541ZM177.476 32.8828C175.187 35.196 172.379 36.3525 169.052 36.3525C166.368 36.3525 164.166 35.7279 162.446 34.4785C160.566 33.1055 159.626 31.2191 159.626 28.8193C159.626 25.6527 161.308 23.0488 164.673 21.0078C163.584 19.3997 163.04 18.002 163.04 16.8145C163.04 15.6146 163.232 14.557 163.615 13.6416C163.999 12.7262 164.531 11.9531 165.211 11.3223C166.621 10.0111 168.507 9.35547 170.87 9.35547C173.505 9.35547 175.868 10.1966 177.958 11.8789L176.232 14.625C175.045 13.5859 173.635 12.9056 172.002 12.584C171.507 12.485 171.019 12.4355 170.536 12.4355C169.324 12.4355 168.378 12.7633 167.697 13.4189C167.017 14.0622 166.677 14.9899 166.677 16.2021C166.677 18.1937 169.281 21.3913 174.488 25.7949L177.067 27.9473C178.045 25.8691 178.533 23.5312 178.533 20.9336L182.003 20.8965C182.003 24.3105 181.224 27.3473 179.665 30.0068L184.842 33.9219L182.56 36.5381L177.476 32.8828ZM174.989 30.9902C171.278 28.0833 168.489 25.5723 166.621 23.457C164.877 24.4219 163.826 25.5228 163.467 26.7598C163.331 27.2051 163.263 27.7617 163.263 28.4297C163.263 29.0977 163.436 29.7409 163.782 30.3594C164.129 30.9779 164.586 31.5036 165.155 31.9365C166.33 32.8271 167.617 33.2725 169.015 33.2725C171.451 33.2725 173.443 32.5117 174.989 30.9902ZM24.6592 60.1816C22.6058 58.3509 19.9648 57.4355 16.7363 57.4355C13.8047 57.4355 11.3184 58.4004 9.27734 60.3301C7.21159 62.2721 6.17871 64.6904 6.17871 67.585C6.17871 70.5785 7.24251 73.1143 9.37012 75.1924C11.4854 77.2581 14.0521 78.291 17.0703 78.291C19.2598 78.291 21.443 77.7344 23.6201 76.6211C24.2633 76.2995 24.82 75.9469 25.29 75.5635L26.626 78.124C24.8076 79.6826 22.4635 80.6908 19.5938 81.1484C18.666 81.2969 17.7135 81.3711 16.7363 81.3711C14.7943 81.3711 12.9635 81.0495 11.2441 80.4062C9.52474 79.7507 8.01562 78.8415 6.7168 77.6787C5.43034 76.5036 4.40983 75.1058 3.65527 73.4854C2.91309 71.8649 2.54199 70.2321 2.54199 68.5869C2.54199 66.9417 2.70898 65.5192 3.04297 64.3193C3.38932 63.1071 3.87793 61.9938 4.50879 60.9795C5.13965 59.9528 5.89421 59.0312 6.77246 58.2148C7.65072 57.3984 8.62793 56.7057 9.7041 56.1367C11.9554 54.9492 14.4108 54.3555 17.0703 54.3555C20.6699 54.3555 23.7747 55.3822 26.3848 57.4355L24.6592 60.1816ZM29.4463 71.8896C29.4463 70.4795 29.7246 69.1745 30.2812 67.9746C30.8379 66.7747 31.5924 65.7357 32.5449 64.8574C34.5612 63.002 36.9857 62.0742 39.8184 62.0742C42.6758 62.0742 45.057 62.9587 46.9619 64.7275C48.8916 66.5212 49.8564 68.8281 49.8564 71.6484C49.8564 74.4069 48.8236 76.7262 46.7578 78.6064C44.7539 80.4495 42.3294 81.3711 39.4844 81.3711C36.5898 81.3711 34.2025 80.4928 32.3223 78.7363C30.4049 76.9551 29.4463 74.6729 29.4463 71.8896ZM32.9717 71.6855C32.9717 72.6504 33.1449 73.5472 33.4912 74.376C33.8376 75.1924 34.3138 75.9036 34.9199 76.5098C36.2064 77.7715 37.8392 78.4023 39.8184 78.4023C41.6615 78.4023 43.2077 77.7715 44.457 76.5098C45.7064 75.2728 46.3311 73.7204 46.3311 71.8525C46.3311 69.8981 45.6816 68.2715 44.3828 66.9727C43.0964 65.6862 41.4635 65.043 39.4844 65.043C37.6413 65.043 36.0951 65.68 34.8457 66.9541C33.5964 68.2158 32.9717 69.793 32.9717 71.6855ZM71.0459 67.7148C71.2562 68.7663 71.3613 69.9847 71.3613 71.3701V81H67.8359V71.5928C67.8359 69.3786 67.6442 67.9004 67.2607 67.1582C66.8773 66.4036 66.401 65.8656 65.832 65.5439C65.2754 65.21 64.6383 65.043 63.9209 65.043C63.2035 65.043 62.5973 65.1048 62.1025 65.2285C61.6201 65.3522 61.1562 65.5254 60.7109 65.748C59.8079 66.2305 59.0905 66.8737 58.5586 67.6777V81H55.0332V62.4453H57.7236L58.2432 64.208C59.8512 62.7855 61.7129 62.0742 63.8281 62.0742C66.7845 62.0742 68.8564 63.0267 70.0439 64.9316C71.1325 63.6699 72.5674 62.804 74.3486 62.334C74.9795 62.1608 75.833 62.0742 76.9092 62.0742C77.9977 62.0742 79.0244 62.2845 79.9893 62.7051C80.9541 63.1257 81.7272 63.7318 82.3086 64.5234C83.36 65.9954 83.8857 68.2777 83.8857 71.3701V81H80.3604V71.5928C80.3604 69.3786 80.1686 67.9004 79.7852 67.1582C79.4017 66.4036 78.9255 65.8656 78.3564 65.5439C77.7998 65.21 77.1628 65.043 76.4453 65.043C75.7279 65.043 75.1217 65.111 74.627 65.2471C74.1322 65.3708 73.6621 65.5501 73.2168 65.7852C72.2891 66.2552 71.5654 66.8984 71.0459 67.7148ZM98.0801 81.3711C96.571 81.3711 95.1608 81.235 93.8496 80.9629V89.665H90.3242V62.4453H93.0146L93.5342 64.2266C95.2907 62.7917 97.3997 62.0742 99.8613 62.0742C102.533 62.0742 104.679 62.9154 106.3 64.5977C107.896 66.2676 108.693 68.457 108.693 71.166C108.693 74.1966 107.679 76.6644 105.65 78.5693C103.671 80.4372 101.148 81.3711 98.0801 81.3711ZM93.8496 77.79C95.5938 78.1982 97.0534 78.4023 98.2285 78.4023C99.4036 78.4023 100.412 78.2415 101.253 77.9199C102.094 77.5859 102.805 77.1159 103.387 76.5098C104.574 75.2728 105.168 73.5658 105.168 71.3887C105.168 69.5579 104.686 68.0612 103.721 66.8984C102.694 65.6615 101.327 65.043 99.6201 65.043C97.6657 65.043 96.0638 65.5254 94.8145 66.4902C94.4186 66.8118 94.097 67.1768 93.8496 67.585V77.79ZM126.005 78.625C123.741 80.4557 121.36 81.3711 118.861 81.3711C117.117 81.3711 115.651 80.9134 114.464 79.998C113.19 79.0085 112.553 77.7158 112.553 76.1201C112.553 72.8298 114.742 70.6341 119.121 69.5332C120.89 69.0879 123.011 68.8405 125.485 68.791C125.411 66.7747 124.428 65.5872 122.535 65.2285C121.917 65.1048 121.335 65.043 120.791 65.043C120.247 65.043 119.764 65.0677 119.344 65.1172C118.923 65.1667 118.49 65.2347 118.045 65.3213C117.068 65.5068 116.239 65.7357 115.559 66.0078L114.575 63.373C116.307 62.5072 118.397 62.0742 120.847 62.0742C124.669 62.0742 127.186 63.2926 128.398 65.7295C128.807 66.5706 129.011 67.5726 129.011 68.7354V74.6543C129.011 75.916 129.104 76.7572 129.289 77.1777C129.623 77.9818 130.211 78.4951 131.052 78.7178L130.532 81C128.219 81.2721 126.71 80.4805 126.005 78.625ZM119.325 72.4463C118.175 72.8792 117.346 73.3617 116.839 73.8936C116.332 74.4131 116.078 74.9759 116.078 75.582C116.078 76.1882 116.165 76.652 116.338 76.9736C116.511 77.2829 116.74 77.5426 117.024 77.7529C117.606 78.1859 118.286 78.4023 119.065 78.4023C119.845 78.4023 120.544 78.3219 121.162 78.1611C121.793 77.988 122.374 77.7653 122.906 77.4932C123.945 76.9736 124.805 76.3304 125.485 75.5635V71.5557C122.541 71.7041 120.488 72.001 119.325 72.4463ZM139.42 64.2822C141.362 62.8102 143.589 62.0742 146.1 62.0742C151.74 62.0742 154.561 65.1729 154.561 71.3701V81H151.035V71.5928C151.035 69.4528 150.664 67.8633 149.922 66.8242C149.093 65.6367 147.739 65.043 145.858 65.043C143.842 65.043 142.154 65.5378 140.793 66.5273C140.348 66.8366 139.989 67.1953 139.717 67.6035V81H136.191V62.4453H138.882L139.42 64.2822ZM165.081 54.8193C165.081 55.512 164.871 56.0687 164.45 56.4893C164.03 56.9098 163.473 57.1201 162.78 57.1201C162.088 57.1201 161.531 56.9098 161.11 56.4893C160.69 56.0687 160.479 55.512 160.479 54.8193C160.479 54.1266 160.69 53.5762 161.11 53.168C161.531 52.7474 162.088 52.5371 162.78 52.5371C163.473 52.5371 164.03 52.7474 164.45 53.168C164.871 53.5762 165.081 54.1266 165.081 54.8193ZM161.018 62.4453H164.543V81H161.018V62.4453ZM184.582 64.0781C185.238 64.7337 185.751 65.5625 186.122 66.5645C186.506 67.554 186.697 68.5993 186.697 69.7002C186.697 70.8011 186.574 72.0938 186.326 73.5781H173.412C173.684 75.0749 174.29 76.2562 175.23 77.1221C176.171 77.9756 177.5 78.4023 179.22 78.4023C181.521 78.4023 183.63 77.9818 185.547 77.1406L186.141 79.7939C184.867 80.5361 183.048 81.0247 180.686 81.2598C180.03 81.334 179.176 81.3711 178.125 81.3711C177.074 81.3711 175.973 81.1608 174.822 80.7402C173.672 80.3197 172.719 79.7012 171.965 78.8848C170.468 77.2643 169.72 74.8893 169.72 71.7598C169.72 69.0137 170.617 66.7129 172.41 64.8574C174.229 63.002 176.498 62.0742 179.22 62.0742C181.459 62.0742 183.246 62.7422 184.582 64.0781ZM183.339 70.8506L183.413 69.8486C183.413 67.585 182.566 66.082 180.871 65.3398C180.302 65.0924 179.622 64.9688 178.83 64.9688C178.038 64.9688 177.309 65.1234 176.641 65.4326C175.985 65.7419 175.416 66.1624 174.934 66.6943C173.944 67.7829 173.387 69.1683 173.264 70.8506H183.339ZM191.15 76.4541C192.61 77.4561 194.28 78.1117 196.16 78.4209C196.754 78.5199 197.311 78.5693 197.83 78.5693C198.35 78.5693 198.838 78.5199 199.296 78.4209C199.754 78.3219 200.168 78.1611 200.539 77.9385C201.331 77.4561 201.727 76.7633 201.727 75.8604C201.727 75.0687 201.145 74.4069 199.982 73.875C199.463 73.64 198.869 73.4173 198.201 73.207L196.16 72.5391C194.416 71.9453 193.21 71.3887 192.542 70.8691C191.886 70.3496 191.398 69.8115 191.076 69.2549C190.767 68.6982 190.612 68.0117 190.612 67.1953C190.612 66.3665 190.804 65.6305 191.188 64.9873C191.583 64.3317 192.109 63.7874 192.765 63.3545C194.051 62.501 195.542 62.0742 197.236 62.0742C200.279 62.0742 202.729 62.736 204.584 64.0596L203.211 66.6387C201.306 65.4635 199.358 64.876 197.366 64.876C195.968 64.876 194.985 65.278 194.416 66.082C194.23 66.3542 194.138 66.6943 194.138 67.1025C194.138 67.5107 194.292 67.8633 194.602 68.1602C194.923 68.457 195.344 68.723 195.863 68.958C196.383 69.1807 196.977 69.3971 197.645 69.6074L199.686 70.2383C201.417 70.8197 202.617 71.3763 203.285 71.9082C204.584 72.9473 205.233 74.1842 205.233 75.6191C205.233 77.487 204.448 78.9404 202.877 79.9795C201.479 80.9072 199.704 81.3711 197.552 81.3711C195.3 81.3711 193.266 80.9258 191.447 80.0352C190.841 79.7507 190.303 79.4105 189.833 79.0146L191.15 76.4541Z" fill="white"/>
<path d="M21.0225 25.8877L16.0519 13.8755L3.21748 19.1863L9.36512 31.6415L21.0225 25.8877ZM26.0137 36V49H46.9275L37.671 30.2462L26.0137 36ZM22.0244 36L10.3639 41.7475L13.9387 49H22.0244V36ZM17.5156 26.8525L29.1761 21.1051L24.9714 12.5745L15.5682 13.9992L17.5156 26.8525ZM6.84668 27.1309V14.1309H-6.15332V27.1309H6.84668ZM6.84668 36V49H19.8467V36H6.84668ZM3.41406 36H-9.58594V49H3.41406V36ZM3.41406 9.72656V-3.27344H-9.58594V9.72656H3.41406ZM22.8965 11.3223L16.5894 22.6898L16.6093 22.7008L16.6292 22.7118L22.8965 11.3223ZM20.2988 22.8633L26.7711 34.1376L26.7917 34.1257L26.8123 34.1138L20.2988 22.8633ZM17.0518 13.0293L15.6002 25.948L15.6543 25.9541L15.7083 25.9597L17.0518 13.0293ZM6.84668 12.8438V-0.15625H-6.15332V12.8438H6.84668ZM6.84668 24.0137H-6.15332V37.0137H6.84668V24.0137ZM13.4033 17.8164C13.4033 17.7315 13.445 16.7401 14.2415 15.5455C15.0401 14.3474 15.9491 13.918 16.0519 13.8755L25.993 37.8999C29.6831 36.373 33.2824 33.8562 35.8748 29.9677C38.4648 26.0826 39.4033 21.7978 39.4033 17.8164H13.4033ZM9.36512 31.6415L14.3563 41.7538L37.671 30.2462L32.6798 20.1339L9.36512 31.6415ZM26.0137 23H22.0244V49H26.0137V23ZM33.6849 30.2525L29.1761 21.1051L5.85515 32.6L10.3639 41.7475L33.6849 30.2525ZM15.5682 13.9992C15.0361 14.0798 14.4093 14.1309 13.6748 14.1309V40.1309C15.6122 40.1309 17.5459 39.9963 19.4631 39.7058L15.5682 13.9992ZM13.6748 14.1309H6.84668V40.1309H13.6748V14.1309ZM-6.15332 27.1309V36H19.8467V27.1309H-6.15332ZM6.84668 23H3.41406V49H6.84668V23ZM16.4141 36V9.72656H-9.58594V36H16.4141ZM3.41406 22.7266H14.1943V-3.27344H3.41406V22.7266ZM14.1943 22.7266C15.5813 22.7266 16.4598 22.8246 16.9383 22.9123C17.447 23.0056 17.2089 23.0335 16.5894 22.6898L29.2036 -0.0452366C24.3879 -2.71718 18.8199 -3.27344 14.1943 -3.27344V22.7266ZM16.6292 22.7118C15.8024 22.2568 14.7911 21.3898 14.0878 20.0876C13.4323 18.8737 13.4033 17.9478 13.4033 17.8164H39.4033C39.4033 10.8388 36.3153 3.868 29.1637 -0.0672686L16.6292 22.7118ZM14.1387 37.0137C17.6256 37.0137 22.4533 36.6163 26.7711 34.1376L13.8266 11.589C14.3277 11.3013 14.7359 11.1406 14.9841 11.0563C15.1115 11.0131 15.2092 10.9858 15.2718 10.9697C15.3346 10.9537 15.3688 10.9473 15.3704 10.947C15.3722 10.9467 15.3471 10.9514 15.2924 10.9584C15.2378 10.9654 15.1585 10.9742 15.0522 10.9826C14.8367 10.9998 14.5358 11.0137 14.1387 11.0137V37.0137ZM26.8123 34.1138C33.3026 30.3563 35.7666 23.8947 35.7666 18.0391H9.7666C9.7666 17.6221 9.84239 16.4567 10.576 15.0225C11.3648 13.4805 12.5629 12.3205 13.7854 11.6127L26.8123 34.1138ZM35.7666 18.0391C35.7666 13.4931 34.1436 8.51647 29.9074 4.80298C26.1356 1.49654 21.6869 0.440896 18.3952 0.0988975L15.7083 25.9597C16.2265 26.0135 14.6352 25.9908 12.7683 24.3542C11.764 23.4739 10.9302 22.3314 10.3933 21.031C9.8762 19.7786 9.7666 18.7047 9.7666 18.0391H35.7666ZM18.5033 0.110588C16.8973 -0.0698555 15.2802 -0.15625 13.6562 -0.15625V25.8438C14.3578 25.8438 15.0043 25.8811 15.6002 25.948L18.5033 0.110588ZM13.6562 -0.15625H6.84668V25.8438H13.6562V-0.15625ZM-6.15332 12.8438V24.0137H19.8467V12.8438H-6.15332ZM6.84668 37.0137H14.1387V11.0137H6.84668V37.0137ZM46.1455 34.2002L58.6008 30.4765L52.9052 11.4257L37.7386 24.2844L46.1455 34.2002ZM33.584 34.0146L43.6808 25.8259L43.6537 25.7926L43.6264 25.7594L33.584 34.0146ZM31.7842 17.4453V4.44531H18.7842V17.4453H31.7842ZM35.3096 17.4453H48.3096V4.44531H35.3096V17.4453ZM36.2744 31.6025L47.2792 24.682L47.2662 24.6612L47.253 24.6405L36.2744 31.6025ZM44.8838 31.8438L36.5298 21.8833L36.5223 21.8896L44.8838 31.8438ZM45.8486 30.7861L56.6116 38.0772L58.8486 34.7748V30.7861H45.8486ZM45.8486 17.4453V4.44531H32.8486V17.4453H45.8486ZM49.374 17.4453H62.374V4.44531H49.374V17.4453ZM49.374 36V49H62.374V36H49.374ZM46.6836 36L34.2283 39.7237L37.0016 49H46.6836V36ZM37.7386 24.2844C38.0714 24.0022 38.5147 23.7357 39.0181 23.5594C39.5069 23.3881 39.8536 23.3711 39.9482 23.3711V49.3711C45.1755 49.3711 50.2943 47.7262 54.5524 44.116L37.7386 24.2844ZM39.9482 23.3711C39.5497 23.3711 39.8878 23.3106 40.6445 23.5908C41.5048 23.9093 42.6809 24.5931 43.6808 25.8259L23.4872 42.2034C28.2147 48.0325 34.9513 49.3711 39.9482 49.3711V23.3711ZM43.6264 25.7594C44.4998 26.8218 44.765 27.718 44.8178 27.9214C44.867 28.1113 44.7842 27.8908 44.7842 27.0752H18.7842C18.7842 31.3845 19.5085 37.3638 23.5415 42.2699L43.6264 25.7594ZM44.7842 27.0752V17.4453H18.7842V27.0752H44.7842ZM31.7842 30.4453H35.3096V4.44531H31.7842V30.4453ZM22.3096 17.4453V26.8525H48.3096V17.4453H22.3096ZM22.3096 26.8525C22.3096 29.779 22.6512 34.3942 25.2958 38.5646L47.253 24.6405C48.0175 25.846 48.2381 26.8081 48.2906 27.0665C48.3489 27.3536 48.3096 27.3268 48.3096 26.8525H22.3096ZM25.2696 38.5231C29.1289 44.66 35.4224 46.4023 40.1895 46.4023V20.4023C40.6105 20.4023 41.7779 20.4644 43.2491 21.1407C44.8579 21.8803 46.2937 23.1148 47.2792 24.682L25.2696 38.5231ZM40.1895 46.4023C44.5892 46.4023 49.276 45.1321 53.2453 41.7979L36.5223 21.8896C37.1883 21.3301 37.9418 20.9221 38.6861 20.6749C39.404 20.4366 39.9458 20.4023 40.1895 20.4023V46.4023ZM53.2377 41.8042C54.4701 40.7707 55.6243 39.5346 56.6116 38.0772L35.0857 23.4951C35.5534 22.8046 36.0644 22.2736 36.5298 21.8833L53.2377 41.8042ZM58.8486 30.7861V17.4453H32.8486V30.7861H58.8486ZM45.8486 30.4453H49.374V4.44531H45.8486V30.4453ZM36.374 17.4453V36H62.374V17.4453H36.374ZM49.374 23H46.6836V49H49.374V23ZM59.1389 32.2763L58.6008 30.4765L33.6902 37.9239L34.2283 39.7237L59.1389 32.2763ZM59.4492 19.2822L46.9735 22.9367L52.2743 41.0328L67.3019 29.6425L59.4492 19.2822ZM74.5898 36V49H87.5898V36H74.5898ZM71.0645 36H58.0645V49H71.0645V36ZM69.9512 21.8242L59.2907 29.2643L59.3314 29.3225L59.3726 29.3803L69.9512 21.8242ZM60.8223 21.5273L68.2374 32.2052L68.3538 32.1243L68.4685 32.0409L60.8223 21.5273ZM59.7461 22.6035L48.9294 15.3924L46.7461 18.6674V22.6035H59.7461ZM59.7461 36V49H72.7461V36H59.7461ZM56.2207 36H43.2207V49H56.2207V36ZM56.2207 17.4453V4.44531H43.2207V17.4453H56.2207ZM58.9111 17.4453L71.3869 13.7908L68.6493 4.44531H58.9111V17.4453ZM67.3019 29.6425C67.1782 29.7363 66.9533 29.871 66.6558 29.9694C66.3626 30.0663 66.1614 30.0742 66.1289 30.0742V4.07422C60.8753 4.07422 55.8711 5.68196 51.5965 8.92195L67.3019 29.6425ZM66.1289 30.0742C66.3827 30.0742 66.0442 30.1129 65.36 29.8623C64.6014 29.5845 63.6713 29.0393 62.8606 28.1487C61.2493 26.3783 61.5898 24.9885 61.5898 26.3701H87.5898C87.5898 21.5545 86.5203 15.5167 82.0886 10.6477C77.4458 5.54671 71.2848 4.07422 66.1289 4.07422V30.0742ZM61.5898 26.3701V36H87.5898V26.3701H61.5898ZM74.5898 23H71.0645V49H74.5898V23ZM84.0645 36V26.5928H58.0645V36H84.0645ZM84.0645 26.5928C84.0645 23.397 83.5927 18.5563 80.5297 14.2681L59.3726 29.3803C58.5229 28.1907 58.2243 27.1698 58.1266 26.7512C58.0286 26.3314 58.0645 26.2291 58.0645 26.5928H84.0645ZM80.6116 14.3841C76.6445 8.69995 70.6102 7.04297 65.8877 7.04297V33.043C65.5009 33.043 64.4444 32.9863 63.0945 32.3946C61.6309 31.753 60.2752 30.6749 59.2907 29.2643L80.6116 14.3841ZM65.8877 7.04297C61.6828 7.04297 57.1716 8.10793 53.176 11.0138L68.4685 32.0409C67.8866 32.4641 67.2873 32.7364 66.7649 32.8894C66.2633 33.0364 65.9402 33.043 65.8877 33.043V7.04297ZM53.4071 10.8495C51.7613 11.9925 50.1982 13.4893 48.9294 15.3924L70.5627 29.8146C69.8383 30.9013 68.9926 31.6807 68.2374 32.2052L53.4071 10.8495ZM46.7461 22.6035V36H72.7461V22.6035H46.7461ZM59.7461 23H56.2207V49H59.7461V23ZM69.2207 36V17.4453H43.2207V36H69.2207ZM56.2207 30.4453H58.9111V4.44531H56.2207V30.4453ZM46.4354 21.0998L46.9735 22.9367L71.925 15.6277L71.3869 13.7908L46.4354 21.0998ZM84.2754 19.2822L71.7996 22.9367L77.1005 41.0328L92.1281 29.6425L84.2754 19.2822ZM99.416 36V49H112.416V36H99.416ZM95.8906 36H82.8906V49H95.8906V36ZM94.7773 21.8242L84.1169 29.2643L84.1575 29.3225L84.1988 29.3803L94.7773 21.8242ZM85.6484 21.5273L93.0636 32.2052L93.18 32.1243L93.2947 32.0409L85.6484 21.5273ZM84.5723 22.6035L73.7556 15.3924L71.5723 18.6674V22.6035H84.5723ZM84.5723 36V49H97.5723V36H84.5723ZM81.0469 36H68.0469V49H81.0469V36ZM81.0469 17.4453V4.44531H68.0469V17.4453H81.0469ZM83.7373 17.4453L96.2131 13.7908L93.4755 4.44531H83.7373V17.4453ZM92.1281 29.6425C92.0043 29.7363 91.7794 29.871 91.4819 29.9694C91.1887 30.0663 90.9876 30.0742 90.9551 30.0742V4.07422C85.7015 4.07422 80.6973 5.68196 76.4227 8.92195L92.1281 29.6425ZM90.9551 30.0742C91.2089 30.0742 90.8703 30.1129 90.1861 29.8623C89.4276 29.5845 88.4974 29.0393 87.6868 28.1487C86.0754 26.3783 86.416 24.9885 86.416 26.3701H112.416C112.416 21.5545 111.346 15.5167 106.915 10.6477C102.272 5.54671 96.111 4.07422 90.9551 4.07422V30.0742ZM86.416 26.3701V36H112.416V26.3701H86.416ZM99.416 23H95.8906V49H99.416V23ZM108.891 36V26.5928H82.8906V36H108.891ZM108.891 26.5928C108.891 23.397 108.419 18.5563 105.356 14.2681L84.1988 29.3803C83.3491 28.1907 83.0505 27.1698 82.9527 26.7512C82.8547 26.3314 82.8906 26.2291 82.8906 26.5928H108.891ZM105.438 14.3841C101.471 8.69995 95.4363 7.04297 90.7139 7.04297V33.043C90.327 33.043 89.2706 32.9863 87.9207 32.3946C86.457 31.753 85.1013 30.6749 84.1169 29.2643L105.438 14.3841ZM90.7139 7.04297C86.5089 7.04297 81.9977 8.10793 78.0022 11.0138L93.2947 32.0409C92.7128 32.4641 92.1135 32.7364 91.5911 32.8894C91.0895 33.0364 90.7664 33.043 90.7139 33.043V7.04297ZM78.2333 10.8495C76.5874 11.9925 75.0243 13.4893 73.7556 15.3924L95.3889 29.8146C94.6645 30.9013 93.8188 31.6807 93.0636 32.2052L78.2333 10.8495ZM71.5723 22.6035V36H97.5723V22.6035H71.5723ZM84.5723 23H81.0469V49H84.5723V23ZM94.0469 36V17.4453H68.0469V36H94.0469ZM81.0469 30.4453H83.7373V4.44531H81.0469V30.4453ZM71.2615 21.0998L71.7996 22.9367L96.7511 15.6277L96.2131 13.7908L71.2615 21.0998ZM120.624 21.5645L108.433 26.0795L108.467 26.1708L108.502 26.2616L120.624 21.5645ZM120.828 28.5781V41.5781H131.841L133.651 30.7153L120.828 28.5781ZM107.914 28.5781V15.5781H92.3373L95.1238 30.9036L107.914 28.5781ZM109.732 32.1221L100.925 41.6842L100.959 41.7157L100.994 41.747L109.732 32.1221ZM120.049 32.1406L132.735 29.3017L129.287 13.8919L114.826 20.2359L120.049 32.1406ZM120.643 34.7939L127.186 46.027L135.406 41.2386L133.329 31.9551L120.643 34.7939ZM115.188 36.2598L113.901 23.3236L113.813 23.3323L113.725 23.3423L115.188 36.2598ZM106.467 33.8848L96.9171 42.7054L96.9199 42.7084L106.467 33.8848ZM106.912 19.8574L97.6273 10.7584L97.5962 10.7901L97.5653 10.8221L106.912 19.8574ZM117.841 25.8506V38.8506H129.913L130.805 26.8109L117.841 25.8506ZM117.915 24.8486L130.88 25.809L130.915 25.3295V24.8486H117.915ZM115.373 20.3398L120.588 8.43179L120.572 8.42484L120.556 8.41793L115.373 20.3398ZM111.143 20.4326L105.681 8.63555L105.639 8.65513L105.597 8.67501L111.143 20.4326ZM109.436 21.6943L119.055 30.4391L119.06 30.4335L119.065 30.4279L109.436 21.6943ZM107.766 25.8506L94.8006 24.8973L93.7746 38.8506H107.766V25.8506ZM109.892 28.2705C109.035 27.4139 108.614 26.5677 108.433 26.0795L132.815 17.0494C131.892 14.5573 130.444 12.0536 128.276 9.88574L109.892 28.2705ZM108.502 26.2616C108.284 25.6974 108.199 25.1448 108.199 24.7002H134.199C134.199 22.0537 133.731 19.4107 132.746 16.8673L108.502 26.2616ZM108.199 24.7002C108.199 24.8792 108.174 25.4257 108.005 26.4409L133.651 30.7153C133.977 28.7618 134.199 26.723 134.199 24.7002H108.199ZM120.828 15.5781H107.914V41.5781H120.828V15.5781ZM95.1238 30.9036C95.8023 34.6355 97.5318 38.5586 100.925 41.6842L118.54 22.56C120.053 23.9538 120.57 25.5143 120.704 26.2526L95.1238 30.9036ZM100.994 41.747C105.064 45.4424 109.93 46.4023 113.722 46.4023V20.4023C114.075 20.4023 116.281 20.5088 118.471 22.4971L100.994 41.747ZM113.722 46.4023C117.641 46.4023 121.551 45.6775 125.272 44.0454L114.826 20.2359C114.712 20.2861 114.404 20.4023 113.722 20.4023V46.4023ZM107.363 34.9795L107.956 37.6328L133.329 31.9551L132.735 29.3017L107.363 34.9795ZM114.099 23.5609C114.403 23.3838 114.64 23.2792 114.778 23.2245C114.916 23.1697 114.98 23.1544 114.95 23.1624C114.921 23.1702 114.822 23.195 114.64 23.2264C114.46 23.2576 114.216 23.2923 113.901 23.3236L116.474 49.1959C119.69 48.876 123.615 48.1075 127.186 46.027L114.099 23.5609ZM113.725 23.3423C113.767 23.3375 113.7 23.3464 113.491 23.3555C113.289 23.3643 113.005 23.3711 112.627 23.3711V49.3711C113.917 49.3711 115.311 49.3288 116.65 49.1773L113.725 23.3423ZM112.627 23.3711C113.327 23.3711 113.74 23.513 113.788 23.5306L104.86 47.9499C107.21 48.8086 109.824 49.3711 112.627 49.3711V23.3711ZM113.788 23.5306C114.376 23.7456 115.229 24.2117 116.014 25.0611L96.9199 42.7084C99.2141 45.1907 101.972 46.8937 104.86 47.9499L113.788 23.5306ZM116.016 25.0641C116.727 25.8331 117.055 26.5773 117.182 26.9812C117.293 27.3338 117.222 27.3236 117.222 26.7598H91.2217C91.2217 31.7926 92.4226 37.8394 96.9171 42.7054L116.016 25.0641ZM117.222 26.7598C117.222 26.8214 117.207 27.1817 117.007 27.6958C116.8 28.2249 116.506 28.6371 116.259 28.8927L97.5653 10.8221C93.2677 15.2679 91.2217 20.8805 91.2217 26.7598H117.222ZM116.197 28.9565C115.941 29.2178 115.498 29.5578 114.897 29.8037C114.308 30.0445 113.862 30.0742 113.722 30.0742V4.07422C107.692 4.07422 102.018 6.27851 97.6273 10.7584L116.197 28.9565ZM113.722 30.0742C113.551 30.0742 112.981 30.048 112.191 29.7527C111.359 29.442 110.553 28.9318 109.892 28.2705L128.276 9.88574C124.057 5.66641 118.723 4.07422 113.722 4.07422V30.0742ZM130.805 26.8109L130.88 25.809L104.951 23.8883L104.876 24.8903L130.805 26.8109ZM130.915 24.8486C130.915 22.1571 130.417 18.8546 128.604 15.6392C126.694 12.2509 123.818 9.84644 120.588 8.43179L110.158 32.2479C108.622 31.5754 107.018 30.2935 105.955 28.4081C104.99 26.6957 104.915 25.2765 104.915 24.8486H130.915ZM120.556 8.41793C117.967 7.29226 115.434 6.96875 113.332 6.96875V32.9688C112.814 32.9688 111.641 32.8926 110.19 32.2618L120.556 8.41793ZM113.332 6.96875C110.799 6.96875 108.187 7.47518 105.681 8.63555L116.604 32.2297C115.434 32.7716 114.282 32.9688 113.332 32.9688V6.96875ZM105.597 8.67501C103.409 9.70677 101.449 11.1498 99.8062 12.9607L119.065 30.4279C118.387 31.1751 117.565 31.777 116.689 32.1902L105.597 8.67501ZM99.8163 12.9496C96.5914 16.4971 95.1047 20.7624 94.8006 24.8973L120.731 26.8039C120.707 27.1284 120.62 27.6961 120.339 28.3964C120.049 29.1162 119.615 29.8223 119.055 30.4391L99.8163 12.9496ZM107.766 38.8506H117.841V12.8506H107.766V38.8506ZM137.045 21.3232L130.438 32.5189L145.948 41.6725L149.752 24.0689L137.045 21.3232ZM132.777 21.249L124.899 10.9084L124.839 10.9543L124.779 11.0009L132.777 21.249ZM131.441 22.752L142.346 29.8286L142.387 29.7657L142.427 29.7023L131.441 22.752ZM129.92 26.834L117.097 24.6968L116.92 25.7581V26.834H129.92ZM129.92 36V49H142.92V36H129.92ZM126.395 36H113.395V49H126.395V36ZM126.395 17.4453V4.44531H113.395V17.4453H126.395ZM129.308 17.4453L142.113 15.2061L140.232 4.44531H129.308V17.4453ZM129.901 20.8408L117.096 23.0801L123.498 59.6908L141.311 27.0716L129.901 20.8408ZM133.557 17.3711L129.023 5.18721L128.963 5.20951L128.903 5.23239L133.557 17.3711ZM135.987 17.1113L134.468 30.0223L134.845 30.0666L135.224 30.0889L135.987 17.1113ZM136.6 17.1855L139.753 4.57369L139.376 4.47966L138.995 4.40821L136.6 17.1855ZM137.843 17.6309L150.55 20.3765L152.758 10.1553L143.248 5.80769L137.843 17.6309ZM143.652 10.1275C141.116 8.63052 138.084 7.65527 134.726 7.65527V33.6553C132.951 33.6553 131.465 33.1253 130.438 32.5189L143.652 10.1275ZM134.726 7.65527C131.667 7.65527 128.096 8.47253 124.899 10.9084L140.656 31.5896C138.498 33.2339 136.225 33.6553 134.726 33.6553V7.65527ZM124.779 11.0009C122.966 12.4155 121.547 14.0768 120.455 15.8016L142.427 29.7023C142.103 30.2149 141.574 30.8742 140.776 31.4971L124.779 11.0009ZM120.536 15.6753C118.683 18.5309 117.609 21.623 117.097 24.6968L142.743 28.9712C142.75 28.9278 142.69 29.2985 142.346 29.8286L120.536 15.6753ZM116.92 26.834V36H142.92V26.834H116.92ZM129.92 23H126.395V49H129.92V23ZM139.395 36V17.4453H113.395V36H139.395ZM126.395 30.4453H129.308V4.44531H126.395V30.4453ZM116.502 19.6846L117.096 23.0801L142.707 18.6016L142.113 15.2061L116.502 19.6846ZM141.311 27.0716C141.254 27.1758 141.012 27.5884 140.48 28.0939C139.92 28.6249 139.154 29.148 138.21 29.5098L128.903 5.23239C123.872 7.16122 120.542 10.8558 118.492 14.6101L141.311 27.0716ZM138.09 29.555C137.598 29.7381 136.516 30.0742 135.004 30.0742V4.07422C132.626 4.07422 130.579 4.60824 129.023 5.18721L138.09 29.555ZM135.004 30.0742C135.116 30.0742 135.139 30.076 135.094 30.0743C135.068 30.0733 135.005 30.0707 134.913 30.0643C134.825 30.0582 134.67 30.0461 134.468 30.0223L137.506 4.20037C136.496 4.08156 135.531 4.07422 135.004 4.07422V30.0742ZM135.224 30.0889C134.911 30.0705 134.569 30.0314 134.204 29.9629L138.995 4.40821C138.234 4.26545 137.484 4.17688 136.751 4.13376L135.224 30.0889ZM133.447 29.7974C132.954 29.6743 132.613 29.5342 132.438 29.454L143.248 5.80769C142.206 5.33169 141.037 4.89474 139.753 4.57369L133.447 29.7974ZM125.136 14.8852L124.338 18.5776L149.752 24.0689L150.55 20.3765L125.136 14.8852ZM141.424 31.4541L148.781 20.7363L136.615 12.3851L129.864 25.5067L141.424 31.4541ZM146.434 33.4209L148.571 20.5978L148.557 20.5955L148.543 20.5932L146.434 33.4209ZM150.812 32.9385L157.501 44.0859L157.539 44.0629L157.577 44.0397L150.812 32.9385ZM150.256 28.875L155.664 17.0532L155.639 17.0418L155.614 17.0306L150.256 28.875ZM148.475 28.207L144.431 40.5622L144.501 40.585L144.571 40.6071L148.475 28.207ZM146.434 27.5391L142.244 39.8455L142.317 39.8703L142.39 39.8942L146.434 27.5391ZM142.815 25.8691L134.741 36.0578L134.788 36.0945L134.834 36.1307L142.815 25.8691ZM141.35 24.2549L129.986 30.5682L130.039 30.6638L130.093 30.7585L141.35 24.2549ZM141.461 19.9873L130.332 13.268L130.313 13.2992L130.295 13.3305L141.461 19.9873ZM143.038 18.3545L150.202 29.2025L150.214 29.1949L150.225 29.1871L143.038 18.3545ZM154.857 19.0596L166.333 25.1686L171.693 15.1002L162.407 8.47627L154.857 19.0596ZM153.484 21.6387L146.659 32.7028L158.449 39.9761L164.96 27.7477L153.484 21.6387ZM144.689 21.082L134.078 13.5723L134.012 13.6649L133.948 13.7587L144.689 21.082ZM144.875 23.1602L135.872 32.5382L135.964 32.6263L136.057 32.7126L144.875 23.1602ZM146.137 23.958L140.779 35.8024L140.897 35.8558L141.016 35.9069L146.137 23.958ZM147.918 24.6074L144.014 37.0075L144.047 37.0176L144.079 37.0277L147.918 24.6074ZM149.959 25.2383L154.096 12.9142L153.948 12.8643L153.798 12.818L149.959 25.2383ZM153.559 26.9082L161.68 16.7569L161.668 16.7477L161.657 16.7386L153.559 26.9082ZM153.15 34.9795L145.979 24.1366L145.97 24.1424L145.961 24.1481L153.15 34.9795ZM141.721 35.0352L147.439 23.3603L147.342 23.3129L147.244 23.2671L141.721 35.0352ZM140.106 34.0146L128.547 28.0672L123.805 37.2828L131.733 43.9585L140.106 34.0146ZM134.067 42.1719C137.217 44.3345 140.707 45.6537 144.324 46.2486L148.543 20.5932C148.451 20.578 148.453 20.5696 148.522 20.5964C148.593 20.6244 148.686 20.6714 148.781 20.7363L134.067 42.1719ZM144.296 46.244C145.488 46.4427 146.766 46.5693 148.104 46.5693V20.5693C148.402 20.5693 148.566 20.597 148.571 20.5978L144.296 46.244ZM148.104 46.5693C149.447 46.5693 150.864 46.4413 152.317 46.1273L146.822 20.7145C147.359 20.5984 147.799 20.5693 148.104 20.5693V46.5693ZM152.317 46.1273C154.051 45.7524 155.814 45.098 157.501 44.0859L144.124 21.7911C145.069 21.2243 146.004 20.8915 146.822 20.7145L152.317 46.1273ZM157.577 44.0397C162.115 41.2746 165 36.4439 165 30.8604H139C139 29.3531 139.35 27.473 140.416 25.6073C141.473 23.7572 142.873 22.5529 144.048 21.8372L157.577 44.0397ZM165 30.8604C165 22.265 158.327 18.2714 155.664 17.0532L144.848 40.6968C144.457 40.5177 143.133 39.8702 141.797 38.3502C140.256 36.5959 139 33.9847 139 30.8604H165ZM155.614 17.0306C154.529 16.5398 153.435 16.1396 152.378 15.807L144.571 40.6071C144.705 40.6493 144.799 40.6824 144.856 40.704C144.914 40.7258 144.926 40.7321 144.898 40.7194L155.614 17.0306ZM152.518 15.8519L150.477 15.1839L142.39 39.8942L144.431 40.5622L152.518 15.8519ZM150.623 15.2326C150.338 15.1356 150.116 15.054 149.949 14.9889C149.78 14.9231 149.692 14.8834 149.669 14.8728C149.641 14.8601 149.726 14.8976 149.891 14.9923C149.977 15.0416 150.097 15.1137 150.244 15.2106C150.39 15.3069 150.579 15.4382 150.797 15.6076L134.834 36.1307C137.346 38.0844 140.356 39.2028 142.244 39.8455L150.623 15.2326ZM150.889 15.6804C151.15 15.8867 151.903 16.5339 152.606 17.7513L130.093 30.7585C131.44 33.0891 133.17 34.8126 134.741 36.0578L150.889 15.6804ZM152.714 17.9415C153.739 19.7863 153.886 21.4111 153.886 22.1953H127.886C127.886 24.6123 128.342 27.6102 129.986 30.5682L152.714 17.9415ZM153.886 22.1953C153.886 23.453 153.569 25.0643 152.627 26.6441L130.295 13.3305C128.586 16.1968 127.886 19.2801 127.886 22.1953H153.886ZM152.59 26.7066C151.961 27.7483 151.115 28.5993 150.202 29.2025L135.874 7.50645C133.65 8.97552 131.753 10.9151 130.332 13.268L152.59 26.7066ZM150.225 29.1871C149.753 29.5003 149.229 29.7403 148.699 29.8921C148.178 30.0413 147.761 30.0742 147.51 30.0742V4.07422C143.519 4.07422 139.475 5.11759 135.851 7.52184L150.225 29.1871ZM147.51 30.0742C148.106 30.0742 148.313 30.1407 148.238 30.1205C148.195 30.1089 148.079 30.0738 147.91 29.9959C147.739 29.9172 147.532 29.8026 147.308 29.6429L162.407 8.47627C157.717 5.1306 152.364 4.07422 147.51 4.07422V30.0742ZM143.382 12.9505L142.009 15.5296L164.96 27.7477L166.333 25.1686L143.382 12.9505ZM160.31 10.5745C156.614 8.29482 152.331 6.87598 147.64 6.87598V32.876C147.336 32.876 147.057 32.8282 146.841 32.7629C146.634 32.7005 146.572 32.6488 146.659 32.7028L160.31 10.5745ZM147.64 6.87598C143.916 6.87598 138.003 8.02572 134.078 13.5723L155.301 28.5917C154.044 30.3675 152.383 31.5527 150.773 32.2108C149.295 32.815 148.122 32.876 147.64 32.876V6.87598ZM133.948 13.7587C131.972 16.6569 131.411 19.7113 131.411 22.1025H157.411C157.411 23.6774 157.035 26.0514 155.43 28.4054L133.948 13.7587ZM131.411 22.1025C131.411 26.2447 133.153 29.9276 135.872 32.5382L153.878 13.7821C154.814 14.681 155.751 15.897 156.432 17.4515C157.12 19.0196 157.411 20.6196 157.411 22.1025H131.411ZM136.057 32.7126C137.658 34.1903 139.353 35.1575 140.779 35.8024L151.495 12.1136C151.881 12.2885 152.735 12.7238 153.693 13.6077L136.057 32.7126ZM141.016 35.9069C142.014 36.3346 143.026 36.6964 144.014 37.0075L151.822 12.2074C151.474 12.0978 151.299 12.0267 151.258 12.0091L141.016 35.9069ZM144.079 37.0277L146.12 37.6585L153.798 12.818L151.757 12.1872L144.079 37.0277ZM145.822 37.5623C146.094 37.6536 146.302 37.7296 146.454 37.7886C146.608 37.8485 146.68 37.8816 146.687 37.8846C146.698 37.8896 146.595 37.843 146.412 37.7365C146.239 37.6353 145.894 37.4227 145.461 37.0778L161.657 16.7386C159.085 14.6909 156.007 13.5556 154.096 12.9142L145.822 37.5623ZM145.438 37.0595C144.948 36.6682 144.162 35.9013 143.51 34.6581C142.829 33.3609 142.507 31.9477 142.507 30.6191H168.507C168.507 24.5791 165.511 19.8219 161.68 16.7569L145.438 37.0595ZM142.507 30.6191C142.507 29.6806 142.72 28.3375 143.481 26.9294C144.24 25.5257 145.233 24.6298 145.979 24.1366L160.322 45.8223C165.495 42.4006 168.507 36.8944 168.507 30.6191H142.507ZM145.961 24.1481C147.223 23.3107 148.138 23.3711 147.825 23.3711V49.3711C151.817 49.3711 156.282 48.5038 160.339 45.8109L145.961 24.1481ZM147.825 23.3711C147.559 23.3711 147.424 23.3452 147.39 23.3377C147.36 23.3312 147.386 23.3346 147.439 23.3603L136.002 46.71C139.792 48.566 143.816 49.3711 147.825 49.3711V23.3711ZM147.244 23.2671C147.573 23.4212 148.01 23.675 148.48 24.0708L131.733 43.9585C133.143 45.146 134.656 46.0801 136.197 46.8032L147.244 23.2671ZM151.666 39.9621L152.984 37.4015L129.864 25.5067L128.547 28.0672L151.666 39.9621ZM177.476 32.8828L185.064 22.3278L176.046 15.8436L168.234 23.74L177.476 32.8828ZM162.446 34.4785L154.78 44.9771L154.792 44.9863L154.805 44.9954L162.446 34.4785ZM164.673 21.0078L171.415 32.1226L183.098 25.0358L175.438 13.7204L164.673 21.0078ZM165.211 11.3223L174.05 20.8548L174.057 20.8487L174.063 20.8426L165.211 11.3223ZM177.958 11.8789L188.965 18.7956L195.119 9.00238L186.108 1.75104L177.958 11.8789ZM176.232 14.625L167.672 24.4085L179.135 34.439L187.24 21.5417L176.232 14.625ZM172.002 12.584L169.452 25.3315L169.471 25.3352L169.49 25.3389L172.002 12.584ZM167.697 13.4189L176.628 22.8654L176.673 22.8229L176.718 22.78L167.697 13.4189ZM174.488 25.7949L166.094 35.7216L166.126 35.7489L166.159 35.7759L174.488 25.7949ZM177.067 27.9473L168.738 37.9283L181.666 48.7173L188.832 33.4793L177.067 27.9473ZM178.533 20.9336L178.394 7.93434L165.533 8.07189V20.9336H178.533ZM182.003 20.8965H195.003V7.7567L181.864 7.89723L182.003 20.8965ZM179.665 30.0068L168.449 23.4338L162.606 33.4045L171.823 40.3755L179.665 30.0068ZM184.842 33.9219L194.638 42.4677L203.802 31.9623L192.683 23.5532L184.842 33.9219ZM182.56 36.5381L174.971 47.0931L184.578 54.0004L192.356 45.0839L182.56 36.5381ZM174.989 30.9902L184.107 40.2565L194.653 29.8797L183.006 20.7563L174.989 30.9902ZM166.621 23.457L176.366 14.8522L169.459 7.03062L160.328 12.0816L166.621 23.457ZM163.467 26.7598L175.899 30.5586L175.927 30.4698L175.952 30.3806L163.467 26.7598ZM165.155 31.9365L157.283 42.2823L157.293 42.2897L157.303 42.2971L165.155 31.9365ZM168.234 23.74C168.218 23.756 168.254 23.7176 168.346 23.6549C168.44 23.591 168.561 23.5228 168.702 23.4648C168.843 23.407 168.962 23.3757 169.042 23.3607C169.119 23.3461 169.128 23.3525 169.052 23.3525V49.3525C175.763 49.3525 181.926 46.8691 186.717 42.0256L168.234 23.74ZM169.052 23.3525C168.708 23.3525 168.703 23.3117 168.935 23.3776C169.192 23.4504 169.619 23.6208 170.088 23.9617L154.805 44.9954C159.269 48.2394 164.35 49.3525 169.052 49.3525V23.3525ZM170.113 23.9799C170.674 24.3895 171.415 25.1285 171.966 26.2354C172.511 27.3285 172.626 28.2871 172.626 28.8193H146.626C146.626 35.2187 149.428 41.069 154.78 44.9771L170.113 23.9799ZM172.626 28.8193C172.626 29.1928 172.574 29.6656 172.422 30.1883C172.269 30.7131 172.048 31.1735 171.807 31.5462C171.333 32.2795 170.975 32.3897 171.415 32.1226L157.93 9.89299C151.771 13.6294 146.626 19.9644 146.626 28.8193H172.626ZM175.438 13.7204C175.288 13.4985 175.397 13.6115 175.562 14.0364C175.728 14.4615 176.04 15.4318 176.04 16.8145H150.04C150.04 21.7754 152.202 25.7758 153.907 28.2952L175.438 13.7204ZM176.04 16.8145C176.04 16.9872 176.012 17.6938 175.606 18.6646L151.625 8.6186C150.451 11.4201 150.04 14.2419 150.04 16.8145H176.04ZM175.606 18.6646C175.323 19.3388 174.823 20.1381 174.05 20.8548L156.372 1.78978C154.238 3.76816 152.674 6.11367 151.625 8.6186L175.606 18.6646ZM174.063 20.8426C173.399 21.4605 172.646 21.8851 171.951 22.1267C171.297 22.3541 170.882 22.3555 170.87 22.3555V-3.64453C166.007 -3.64453 160.692 -2.2276 156.359 1.8019L174.063 20.8426ZM170.87 22.3555C170.778 22.3555 170.546 22.3359 170.258 22.2333C170.125 22.1861 170.015 22.1331 169.93 22.0852C169.846 22.0379 169.806 22.0055 169.808 22.0068L186.108 1.75104C181.754 -1.75274 176.529 -3.64453 170.87 -3.64453V22.3555ZM166.951 4.9622L165.225 7.70829L187.24 21.5417L188.965 18.7956L166.951 4.9622ZM184.793 4.8415C181.79 2.2143 178.262 0.567222 174.514 -0.170943L169.49 25.3389C169.288 25.2993 168.988 25.2139 168.635 25.044C168.279 24.8723 167.951 24.6526 167.672 24.4085L184.793 4.8415ZM174.551 -0.163564C173.256 -0.422731 171.913 -0.564453 170.536 -0.564453V25.4355C170.124 25.4355 169.759 25.3928 169.452 25.3315L174.551 -0.163564ZM170.536 -0.564453C166.951 -0.564453 162.41 0.460046 158.677 4.05793L176.718 22.78C174.345 25.0666 171.697 25.4355 170.536 25.4355V-0.564453ZM158.766 3.97254C154.78 7.74161 153.677 12.5251 153.677 16.2021H179.677C179.677 17.4547 179.254 20.3827 176.628 22.8654L158.766 3.97254ZM153.677 16.2021C153.677 22.0593 157.037 26.4453 158.549 28.3027C160.58 30.7962 163.218 33.2897 166.094 35.7216L182.882 15.8682C181.757 14.9166 180.851 14.096 180.137 13.4014C179.413 12.697 178.963 12.1956 178.71 11.8853C178.429 11.5405 178.549 11.6228 178.784 12.0915C178.912 12.3462 179.121 12.8079 179.305 13.4553C179.489 14.1042 179.677 15.042 179.677 16.2021H153.677ZM166.159 35.7759L168.738 37.9283L185.397 17.9663L182.818 15.8139L166.159 35.7759ZM188.832 33.4793C190.723 29.4563 191.533 25.192 191.533 20.9336H165.533C165.533 21.8705 165.366 22.282 165.303 22.4153L188.832 33.4793ZM178.672 33.9329L182.142 33.8957L181.864 7.89723L178.394 7.93434L178.672 33.9329ZM169.003 20.8965C169.003 22.255 168.717 22.977 168.449 23.4338L190.881 36.5799C193.73 31.7177 195.003 26.3661 195.003 20.8965H169.003ZM171.823 40.3755L177 44.2906L192.683 23.5532L187.507 19.6381L171.823 40.3755ZM175.045 25.3761L172.763 27.9923L192.356 45.0839L194.638 42.4677L175.045 25.3761ZM190.148 25.983L185.064 22.3278L169.887 43.4379L174.971 47.0931L190.148 25.983ZM183.006 20.7563C179.564 18.0604 177.476 16.1101 176.366 14.8522L156.877 32.0619C159.501 35.0344 162.992 38.1063 166.973 41.2242L183.006 20.7563ZM160.328 12.0816C157.182 13.822 152.71 17.1782 150.981 23.1389L175.952 30.3806C174.941 33.8673 172.572 35.0218 172.914 34.8325L160.328 12.0816ZM151.034 22.9609C150.398 25.0443 150.263 26.9831 150.263 28.4297H176.263C176.263 28.5266 176.258 28.7559 176.218 29.0884C176.178 29.4161 176.092 29.9269 175.899 30.5586L151.034 22.9609ZM150.263 28.4297C150.263 31.4586 151.075 34.275 152.44 36.7112L175.125 24.0075C175.796 25.2067 176.263 26.7367 176.263 28.4297H150.263ZM152.44 36.7112C153.665 38.8987 155.309 40.7797 157.283 42.2823L173.027 21.5908C173.864 22.2275 174.593 23.0571 175.125 24.0075L152.44 36.7112ZM157.303 42.2971C160.605 44.7998 164.62 46.2725 169.015 46.2725V20.2725C169.724 20.2725 170.493 20.3902 171.254 20.6537C172.008 20.9145 172.594 21.2628 173.008 21.5759L157.303 42.2971ZM169.015 46.2725C174.405 46.2725 179.821 44.4741 184.107 40.2565L165.871 21.724C166.354 21.2494 166.987 20.8289 167.697 20.5578C168.378 20.2975 168.872 20.2725 169.015 20.2725V46.2725ZM24.6592 60.1816L16.0079 69.8851L27.4853 80.1178L35.6664 67.0983L24.6592 60.1816ZM9.27734 60.3301L18.1818 69.8017L18.1952 69.7891L18.2085 69.7765L9.27734 60.3301ZM9.37012 75.1924L0.286503 84.4923L0.287151 84.4929L9.37012 75.1924ZM23.6201 76.6211L17.8063 64.9935L17.7537 65.0198L17.7014 65.0466L23.6201 76.6211ZM25.29 75.5635L36.8156 69.5501L29.4354 55.4046L17.0724 65.4902L25.29 75.5635ZM26.626 78.124L35.0863 87.9944L42.9307 81.2706L38.1516 72.1107L26.626 78.124ZM19.5938 81.1484L17.5463 68.3107L17.5399 68.3117L19.5938 81.1484ZM11.2441 80.4062L6.61257 92.5532L6.65081 92.5678L6.68914 92.5821L11.2441 80.4062ZM6.7168 77.6787L-2.05089 87.277L-2.00278 87.321L-1.95423 87.3644L6.7168 77.6787ZM3.65527 73.4854L-8.16399 78.8988L-8.14696 78.9359L-8.1297 78.973L3.65527 73.4854ZM3.04297 64.3193L-9.45684 60.748L-9.46902 60.7906L-9.48091 60.8333L3.04297 64.3193ZM4.50879 60.9795L15.5479 67.8453L15.5665 67.8153L15.5849 67.7853L4.50879 60.9795ZM9.7041 56.1367L3.63898 44.6383L3.62763 44.6443L9.7041 56.1367ZM26.3848 57.4355L37.392 64.3523L43.6145 54.4498L34.4229 47.2185L26.3848 57.4355ZM33.3104 50.4782C28.4712 46.1638 22.5687 44.4355 16.7363 44.4355V70.4355C17.122 70.4355 17.1238 70.4893 16.8811 70.4052C16.7619 70.3639 16.6106 70.2983 16.4449 70.2013C16.2787 70.1041 16.1307 69.9945 16.0079 69.8851L33.3104 50.4782ZM16.7363 44.4355C10.6435 44.4355 4.91509 46.564 0.346196 50.8837L18.2085 69.7765C18.072 69.9055 17.7844 70.1201 17.3759 70.2786C16.9773 70.4333 16.7194 70.4355 16.7363 70.4355V44.4355ZM0.372911 50.8585C-4.36747 55.315 -6.82129 61.1883 -6.82129 67.585H19.1787C19.1787 67.7151 19.1481 68.1458 18.9086 68.7065C18.6665 69.2733 18.3527 69.641 18.1818 69.8017L0.372911 50.8585ZM-6.82129 67.585C-6.82129 74.0535 -4.36389 79.95 0.286503 84.4923L18.4537 65.8925C18.5315 65.9685 18.7704 66.2403 18.9644 66.7029C19.1577 67.1637 19.1787 67.5089 19.1787 67.585H-6.82129ZM0.287151 84.4929C4.88687 88.985 10.7366 91.291 17.0703 91.291V65.291C17.0594 65.291 17.1267 65.2903 17.2554 65.3141C17.3865 65.3384 17.5519 65.3827 17.7347 65.4562C18.134 65.6169 18.3791 65.8196 18.4531 65.8919L0.287151 84.4929ZM17.0703 91.291C21.5481 91.291 25.7463 90.1349 29.5389 88.1956L17.7014 65.0466C17.4017 65.1998 17.2164 65.2566 17.1381 65.2765C17.0655 65.295 17.0507 65.291 17.0703 65.291V91.291ZM29.4339 88.2486C30.7803 87.5754 32.1743 86.7244 33.5077 85.6367L17.0724 65.4902C17.4656 65.1694 17.7464 65.0235 17.8063 64.9935L29.4339 88.2486ZM13.7644 81.5768L15.1004 84.1374L38.1516 72.1107L36.8156 69.5501L13.7644 81.5768ZM18.1657 68.2537C18.3168 68.1242 18.4127 68.0875 18.368 68.1067C18.3102 68.1316 18.0627 68.2283 17.5463 68.3107L21.6412 93.9862C26.3741 93.2314 31.091 91.4189 35.0863 87.9944L18.1657 68.2537ZM17.5399 68.3117C17.3179 68.3472 17.0531 68.3711 16.7363 68.3711V94.3711C18.374 94.3711 20.0141 94.2465 21.6476 93.9852L17.5399 68.3117ZM16.7363 68.3711C16.2588 68.3711 15.9789 68.2976 15.7991 68.2304L6.68914 92.5821C9.94814 93.8013 13.3298 94.3711 16.7363 94.3711V68.3711ZM15.8757 68.2593C15.5585 68.1383 15.4372 68.0372 15.3878 67.993L-1.95423 87.3644C0.594047 89.6458 3.491 91.363 6.61257 92.5532L15.8757 68.2593ZM15.4845 68.0804C15.4791 68.0754 15.4785 68.0745 15.4808 68.0771C15.4832 68.0797 15.4852 68.0823 15.4861 68.0835C15.4869 68.0846 15.4837 68.0804 15.4768 68.0687C15.4699 68.0569 15.4572 68.0341 15.4402 67.9977L-8.1297 78.973C-6.66981 82.1082 -4.63777 84.914 -2.05089 87.277L15.4845 68.0804ZM15.4745 68.0719C15.4518 68.0222 15.4723 68.0554 15.497 68.1643C15.5225 68.2763 15.542 68.4229 15.542 68.5869H-10.458C-10.458 72.2522 -9.61843 75.7232 -8.16399 78.8988L15.4745 68.0719ZM15.542 68.5869C15.542 68.1982 15.562 67.9426 15.5786 67.8018C15.5953 67.6598 15.6039 67.6721 15.5669 67.8054L-9.48091 60.8333C-10.2133 63.4645 -10.458 66.1167 -10.458 68.5869H15.542ZM15.5428 67.8907C15.5608 67.8277 15.573 67.8 15.5732 67.7997C15.5734 67.7991 15.5715 67.8035 15.567 67.8121C15.5624 67.8207 15.5561 67.832 15.5479 67.8453L-6.53029 54.1137C-7.83308 56.2084 -8.79728 58.4395 -9.45684 60.748L15.5428 67.8907ZM15.5849 67.7853C15.5973 67.7651 15.6044 67.7564 15.6063 67.7541C15.6081 67.7518 15.6125 67.7465 15.6235 67.7364L-2.07855 48.6933C-3.82219 50.3142 -5.32407 52.1503 -6.56735 54.1737L15.5849 67.7853ZM15.6235 67.7364C15.6545 67.7075 15.6962 67.6738 15.7806 67.6292L3.62763 44.6443C1.5597 45.7377 -0.353096 47.0894 -2.07855 48.6933L15.6235 67.7364ZM15.7692 67.6352C16.0661 67.4786 16.4264 67.3555 17.0703 67.3555V41.3555C12.3952 41.3555 7.84472 42.4199 3.63898 44.6383L15.7692 67.6352ZM17.0703 67.3555C18.0151 67.3555 18.225 67.5569 18.3467 67.6526L34.4229 47.2185C29.3244 43.2074 23.3247 41.3555 17.0703 41.3555V67.3555ZM15.3775 50.5188L13.6519 53.2649L35.6664 67.0983L37.392 64.3523L15.3775 50.5188ZM32.5449 64.8574L23.7419 55.2915L23.7324 55.3002L32.5449 64.8574ZM46.9619 64.7275L55.8125 55.2056L55.8078 55.2012L46.9619 64.7275ZM46.7578 78.6064L38.0073 68.9924L37.9823 69.0152L37.9574 69.0382L46.7578 78.6064ZM32.3223 78.7363L41.1969 69.2368L41.1837 69.2245L41.1705 69.2122L32.3223 78.7363ZM33.4912 74.376L21.4965 79.3887L21.51 79.4209L21.5236 79.4531L33.4912 74.376ZM34.9199 76.5098L25.7275 85.7022L25.7722 85.7468L25.8172 85.791L34.9199 76.5098ZM44.457 76.5098L35.3105 67.2718L35.2648 67.317L35.2195 67.3628L44.457 76.5098ZM34.8457 66.9541L44.0833 76.1011L44.1056 76.0786L44.1278 76.0559L34.8457 66.9541ZM42.4463 71.8896C42.4463 72.2418 42.3645 72.8193 42.074 73.4455L18.4885 62.5037C17.0847 65.5297 16.4463 68.7171 16.4463 71.8896H42.4463ZM42.074 73.4455C42.0094 73.5848 41.9146 73.7538 41.7836 73.9342C41.6523 74.1151 41.5063 74.2774 41.3574 74.4146L23.7324 55.3002C21.502 57.3568 19.7461 59.7929 18.4885 62.5037L42.074 73.4455ZM41.3479 74.4234C41.2139 74.5467 40.9295 74.7553 40.5215 74.9115C40.1207 75.0648 39.845 75.0742 39.8184 75.0742V49.0742C33.8461 49.0742 28.2459 51.1467 23.7419 55.2915L41.3479 74.4234ZM39.8184 75.0742C39.8934 75.0742 39.648 75.0827 39.2209 74.9241C38.7731 74.7577 38.3848 74.5034 38.116 74.2539L55.8078 55.2012C51.2511 50.97 45.6035 49.0742 39.8184 49.0742V75.0742ZM38.1114 74.2495C37.7938 73.9543 37.4098 73.4652 37.1395 72.819C36.8776 72.1929 36.8564 71.7409 36.8564 71.6484H62.8564C62.8564 65.5008 60.5903 59.6465 55.8125 55.2056L38.1114 74.2495ZM36.8564 71.6484C36.8564 71.3648 36.9191 70.8128 37.2062 70.1682C37.4915 69.5275 37.8447 69.1404 38.0073 68.9924L55.5083 88.2205C60.2418 83.9122 62.8564 78.1193 62.8564 71.6484H36.8564ZM37.9574 69.0382C38.1109 68.8969 38.4083 68.6837 38.8176 68.5282C39.0058 68.4566 39.1718 68.415 39.2998 68.3927C39.4258 68.3706 39.4922 68.3711 39.4844 68.3711V94.3711C45.4281 94.3711 51.0388 92.3315 55.5583 88.1747L37.9574 69.0382ZM39.4844 68.3711C39.3599 68.3711 39.5839 68.3546 40.0113 68.5118C40.4643 68.6785 40.8846 68.9451 41.1969 69.2368L23.4477 88.2359C28.042 92.528 33.7397 94.3711 39.4844 94.3711V68.3711ZM41.1705 69.2122C41.4856 69.505 41.8745 69.9963 42.1508 70.6541C42.4195 71.2937 42.4463 71.7669 42.4463 71.8896H16.4463C16.4463 78.0291 18.7263 83.8496 23.474 88.2605L41.1705 69.2122ZM19.9717 71.6855C19.9717 74.2424 20.4386 76.8572 21.4965 79.3887L45.4859 69.3633C45.8511 70.2372 45.9717 71.0584 45.9717 71.6855H19.9717ZM21.5236 79.4531C22.4992 81.7526 23.8997 83.8743 25.7275 85.7022L44.1123 67.3174C44.7279 67.933 45.176 68.6322 45.4588 69.2988L21.5236 79.4531ZM25.8172 85.791C29.784 89.6814 34.802 91.4023 39.8184 91.4023V65.4023C40.2232 65.4023 40.9341 65.4704 41.7946 65.8028C42.678 66.1441 43.4404 66.6576 44.0226 67.2286L25.8172 85.791ZM39.8184 91.4023C44.984 91.4023 49.9019 89.487 53.6946 85.6568L35.2195 67.3628C35.7484 66.8286 36.4993 66.2801 37.4494 65.8925C38.3896 65.5089 39.2309 65.4023 39.8184 65.4023V91.4023ZM53.6036 85.7478C57.4848 81.905 59.3311 76.95 59.3311 71.8525H33.3311C33.3311 71.3165 33.4258 70.5006 33.8023 69.5648C34.1853 68.6131 34.74 67.8366 35.3105 67.2718L53.6036 85.7478ZM59.3311 71.8525C59.3311 66.6951 57.4798 61.6849 53.5752 57.7803L35.1904 76.165C34.6548 75.6295 34.1315 74.8907 33.7706 73.9869C33.4162 73.0991 33.3311 72.3354 33.3311 71.8525H59.3311ZM53.5752 57.7803C49.6244 53.8295 44.5775 52.043 39.4844 52.043V78.043C39.0502 78.043 38.3111 77.9684 37.4285 77.6207C36.5244 77.2645 35.761 76.7356 35.1904 76.165L53.5752 57.7803ZM39.4844 52.043C34.278 52.043 29.3466 53.9944 25.5636 57.8523L44.1278 76.0559C43.605 76.589 42.8542 77.1452 41.8945 77.5406C40.9436 77.9324 40.0877 78.043 39.4844 78.043V52.043ZM25.6081 57.8071C21.7783 61.6749 19.9717 66.6171 19.9717 71.6855H45.9717C45.9717 72.1892 45.8838 72.9687 45.5267 73.8704C45.1631 74.7883 44.6338 75.5451 44.0833 76.1011L25.6081 57.8071ZM71.0459 67.7148L60.0783 60.7355L57.2739 65.1423L58.2983 70.2644L71.0459 67.7148ZM71.3613 81V94H84.3613V81H71.3613ZM67.8359 81H54.8359V94H67.8359V81ZM67.2607 67.1582L55.6714 73.0479L55.6912 73.0867L55.7112 73.1255L67.2607 67.1582ZM65.832 65.5439L59.1436 76.6914L59.2883 76.7782L59.4353 76.8613L65.832 65.5439ZM62.1025 65.2285L58.9496 52.6167L58.9116 52.6262L58.8737 52.6359L62.1025 65.2285ZM60.7109 65.748L54.8972 54.1205L54.7401 54.199L54.5851 54.2818L60.7109 65.748ZM58.5586 67.6777L47.7163 60.5052L45.5586 63.7669V67.6777H58.5586ZM58.5586 81V94H71.5586V81H58.5586ZM55.0332 81H42.0332V94H55.0332V81ZM55.0332 62.4453V49.4453H42.0332V62.4453H55.0332ZM57.7236 62.4453L70.1933 58.77L67.445 49.4453H57.7236V62.4453ZM58.2432 64.208L45.7735 67.8833L51.5508 87.4847L66.8566 73.945L58.2432 64.208ZM70.0439 64.9316L59.0119 71.8087L68.3527 86.7929L79.887 73.4237L70.0439 64.9316ZM74.3486 62.334L77.6656 74.9037L77.7279 74.8873L77.79 74.8702L74.3486 62.334ZM82.3086 64.5234L92.8871 56.9673L92.8373 56.8976L92.7867 56.8286L82.3086 64.5234ZM83.8857 81V94H96.8857V81H83.8857ZM80.3604 81H67.3604V94H80.3604V81ZM79.7852 67.1582L68.1958 73.0479L68.2156 73.0867L68.2356 73.1255L79.7852 67.1582ZM78.3564 65.5439L71.668 76.6914L71.8127 76.7782L71.9597 76.8613L78.3564 65.5439ZM74.627 65.2471L77.7799 77.8589L77.9274 77.8221L78.074 77.7817L74.627 65.2471ZM73.2168 65.7852L79.0923 77.3816L79.1889 77.3327L79.2847 77.2822L73.2168 65.7852ZM58.2983 70.2644C58.2968 70.2567 58.3139 70.3411 58.3306 70.5349C58.3472 70.7275 58.3613 71.0025 58.3613 71.3701H84.3613C84.3613 69.3624 84.212 67.258 83.7934 65.1653L58.2983 70.2644ZM58.3613 71.3701V81H84.3613V71.3701H58.3613ZM71.3613 68H67.8359V94H71.3613V68ZM80.8359 81V71.5928H54.8359V81H80.8359ZM80.8359 71.5928C80.8359 70.167 80.7774 68.6409 80.5841 67.1513C80.4215 65.8976 80.0389 63.569 78.8103 61.1909L55.7112 73.1255C55.2322 72.1984 55.0158 71.4526 54.9278 71.1129C54.8313 70.7404 54.8023 70.5123 54.8001 70.4957C54.7986 70.4842 54.8359 70.8043 54.8359 71.5928H80.8359ZM78.85 61.2686C77.6458 58.899 75.5966 56.1302 72.2288 54.2266L59.4353 76.8613C57.2054 75.6009 56.1087 73.9083 55.6714 73.0479L78.85 61.2686ZM72.5205 54.3965C69.7353 52.7254 66.7393 52.043 63.9209 52.043V78.043C62.5374 78.043 60.8155 77.6945 59.1436 76.6914L72.5205 54.3965ZM63.9209 52.043C62.5345 52.043 60.7982 52.1545 58.9496 52.6167L65.2555 77.8404C64.7977 77.9548 64.4479 78.0018 64.2479 78.0222C64.0438 78.043 63.928 78.043 63.9209 78.043V52.043ZM58.8737 52.6359C57.4981 52.9886 56.1677 53.4852 54.8972 54.1205L66.5247 77.3756C66.1448 77.5656 65.7421 77.7158 65.3314 77.8211L58.8737 52.6359ZM54.5851 54.2818C51.8996 55.7166 49.5133 57.7888 47.7163 60.5052L69.4008 74.8503C68.6676 75.9586 67.7163 76.7444 66.8367 77.2143L54.5851 54.2818ZM45.5586 67.6777V81H71.5586V67.6777H45.5586ZM58.5586 68H55.0332V94H58.5586V68ZM68.0332 81V62.4453H42.0332V81H68.0332ZM55.0332 75.4453H57.7236V49.4453H55.0332V75.4453ZM45.254 66.1206L45.7735 67.8833L70.7128 60.5327L70.1933 58.77L45.254 66.1206ZM66.8566 73.945C66.5822 74.1877 66.1218 74.5083 65.4851 74.7515C64.8454 74.9959 64.258 75.0742 63.8281 75.0742V49.0742C58.4876 49.0742 53.5752 50.9808 49.6297 54.4711L66.8566 73.945ZM63.8281 75.0742C63.9652 75.0742 63.2625 75.1028 62.1695 74.6003C60.9347 74.0327 59.7854 73.0496 59.0119 71.8087L81.076 58.0545C76.7746 51.1545 69.6686 49.0742 63.8281 49.0742V75.0742ZM79.887 73.4237C79.5297 73.8378 79.1037 74.1945 78.6532 74.4664C78.2124 74.7324 77.8534 74.8541 77.6656 74.9037L71.0316 49.7643C66.9926 50.8301 63.1829 52.9832 60.2009 56.4396L79.887 73.4237ZM77.79 74.8702C77.4981 74.9503 77.264 74.9978 77.1045 75.0257C76.9434 75.0539 76.83 75.0671 76.774 75.0728C76.6718 75.0831 76.7046 75.0742 76.9092 75.0742V49.0742C75.3148 49.0742 73.1458 49.1832 70.9073 49.7977L77.79 74.8702ZM76.9092 75.0742C76.2728 75.0742 75.5249 74.9404 74.7946 74.6221L85.1839 50.788C82.5239 49.6286 79.7227 49.0742 76.9092 49.0742V75.0742ZM74.7946 74.6221C73.8125 74.194 72.7041 73.4079 71.8305 72.2183L92.7867 56.8286C90.7503 54.0557 88.0957 52.0573 85.1839 50.788L74.7946 74.6221ZM71.7301 72.0795C71.0144 71.0775 70.8366 70.3152 70.8232 70.2573C70.812 70.2085 70.8296 70.2704 70.8489 70.4682C70.8681 70.6643 70.8857 70.9603 70.8857 71.3701H96.8857C96.8857 67.2892 96.2825 61.7208 92.8871 56.9673L71.7301 72.0795ZM70.8857 71.3701V81H96.8857V71.3701H70.8857ZM83.8857 68H80.3604V94H83.8857V68ZM93.3604 81V71.5928H67.3604V81H93.3604ZM93.3604 71.5928C93.3604 70.167 93.3018 68.6409 93.1086 67.1513C92.9459 65.8976 92.5634 63.569 91.3347 61.1909L68.2356 73.1255C67.7566 72.1984 67.5402 71.4526 67.4522 71.1129C67.3557 70.7404 67.3267 70.5123 67.3245 70.4957C67.3231 70.4842 67.3604 70.8043 67.3604 71.5928H93.3604ZM91.3745 61.2686C90.1703 58.899 88.1211 56.1302 84.7532 54.2266L71.9597 76.8613C69.7299 75.6009 68.6331 73.9083 68.1958 73.0479L91.3745 61.2686ZM85.0449 54.3965C82.2597 52.7254 79.2638 52.043 76.4453 52.043V78.043C75.0618 78.043 73.3399 77.6945 71.668 76.6914L85.0449 54.3965ZM76.4453 52.043C74.9876 52.043 73.1442 52.1722 71.1799 52.7124L78.074 77.7817C77.5583 77.9235 77.1525 77.9848 76.9027 78.0129C76.6493 78.0413 76.4892 78.043 76.4453 78.043V52.043ZM71.474 52.6352C69.9795 53.0088 68.5295 53.5595 67.1489 54.2882L79.2847 77.2822C78.7947 77.5407 78.2848 77.7327 77.7799 77.8589L71.474 52.6352ZM67.3413 54.1887C64.4938 55.6314 61.9438 57.804 60.0783 60.7355L82.0135 74.6942C81.1871 75.9929 80.0843 76.879 79.0923 77.3816L67.3413 54.1887ZM93.8496 80.9629L96.4914 68.2342L80.8496 64.9877V80.9629H93.8496ZM93.8496 89.665V102.665H106.85V89.665H93.8496ZM90.3242 89.665H77.3242V102.665H90.3242V89.665ZM90.3242 62.4453V49.4453H77.3242V62.4453H90.3242ZM93.0146 62.4453L105.495 58.8053L102.765 49.4453H93.0146V62.4453ZM93.5342 64.2266L81.0542 67.8666L86.5521 86.7165L101.759 74.2943L93.5342 64.2266ZM106.3 64.5977L115.699 55.6165L115.681 55.5977L115.663 55.579L106.3 64.5977ZM105.65 78.5693L96.7515 69.0926L96.7396 69.1037L96.7278 69.1149L105.65 78.5693ZM93.8496 77.79H80.8496V88.0988L90.8871 90.448L93.8496 77.79ZM101.253 77.9199L105.896 90.0626L105.973 90.033L106.05 90.0023L101.253 77.9199ZM103.387 76.5098L94.0087 67.5069L94.0049 67.5108L103.387 76.5098ZM103.721 66.8984L113.725 58.597L113.724 58.5957L103.721 66.8984ZM94.8145 66.4902L86.8685 56.2013L86.7414 56.2995L86.6167 56.4008L94.8145 66.4902ZM93.8496 67.585L82.732 60.847L80.8496 63.953V67.585H93.8496ZM98.0801 68.3711C97.3486 68.3711 96.8322 68.3049 96.4914 68.2342L91.2078 93.6916C93.4894 94.1652 95.7934 94.3711 98.0801 94.3711V68.3711ZM80.8496 80.9629V89.665H106.85V80.9629H80.8496ZM93.8496 76.665H90.3242V102.665H93.8496V76.665ZM103.324 89.665V62.4453H77.3242V89.665H103.324ZM90.3242 75.4453H93.0146V49.4453H90.3242V75.4453ZM80.5346 66.0853L81.0542 67.8666L106.014 60.5866L105.495 58.8053L80.5346 66.0853ZM101.759 74.2943C101.458 74.5402 101.061 74.7696 100.62 74.9197C100.193 75.0651 99.9061 75.0742 99.8613 75.0742V49.0742C94.6761 49.0742 89.5913 50.6612 85.3098 54.1588L101.759 74.2943ZM99.8613 75.0742C99.8286 75.0742 99.3897 75.0668 98.7311 74.8087C98.0364 74.5364 97.4083 74.1057 96.9369 73.6163L115.663 55.579C111.232 50.9787 105.51 49.0742 99.8613 49.0742V75.0742ZM96.9009 73.5788C96.4459 73.1027 96.0914 72.5214 95.8807 71.9432C95.6829 71.4004 95.6934 71.0874 95.6934 71.166H121.693C121.693 65.7305 120.001 60.1186 115.699 55.6165L96.9009 73.5788ZM95.6934 71.166C95.6934 71.215 95.6897 70.8805 95.9087 70.3476C96.1378 69.7901 96.4718 69.3551 96.7515 69.0926L114.549 88.0461C119.443 83.4506 121.693 77.4306 121.693 71.166H95.6934ZM96.7278 69.1149C96.9945 68.8632 97.3647 68.6256 97.7613 68.4788C98.1312 68.3419 98.2871 68.3711 98.0801 68.3711V94.3711C104.009 94.3711 109.868 92.4639 114.573 88.0238L96.7278 69.1149ZM90.8871 90.448C93.1527 90.9782 95.6811 91.4023 98.2285 91.4023V65.4023C98.3719 65.4023 98.3287 65.4131 98.0527 65.3745C97.7857 65.3372 97.3787 65.2647 96.8121 65.1321L90.8871 90.448ZM98.2285 91.4023C100.532 91.4023 103.197 91.0945 105.896 90.0626L96.6101 65.7772C97.1309 65.5782 97.5511 65.4866 97.8182 65.444C97.9534 65.4225 98.0566 65.4122 98.1236 65.4073C98.1907 65.4024 98.2267 65.4023 98.2285 65.4023V91.4023ZM106.05 90.0023C108.487 89.035 110.8 87.5613 112.769 85.5087L94.0049 67.5108C94.8109 66.6705 95.7016 66.1369 96.4555 65.8375L106.05 90.0023ZM112.765 85.5127C116.857 81.2495 118.168 75.9768 118.168 71.3887H92.168C92.168 71.3116 92.1771 70.7989 92.4442 70.031C92.7283 69.2143 93.2366 68.3111 94.0087 67.5069L112.765 85.5127ZM118.168 71.3887C118.168 67.1925 117.013 62.5589 113.725 58.597L93.7164 75.1999C93.0988 74.4556 92.6785 73.6429 92.433 72.8811C92.1971 72.1493 92.168 71.6101 92.168 71.3887H118.168ZM113.724 58.5957C110.058 54.1786 104.92 52.043 99.6201 52.043V78.043C98.8798 78.043 97.7842 77.9018 96.5663 77.3508C95.3265 76.7898 94.3716 75.9892 93.7174 75.2011L113.724 58.5957ZM99.6201 52.043C95.4898 52.043 90.8917 53.0943 86.8685 56.2013L102.76 76.7792C102.056 77.3233 101.328 77.6639 100.702 77.8526C100.102 78.033 99.7047 78.043 99.6201 78.043V52.043ZM86.6167 56.4008C85.1422 57.5988 83.8046 59.0773 82.732 60.847L104.967 74.3229C104.389 75.2762 103.695 76.0249 103.012 76.5797L86.6167 56.4008ZM80.8496 67.585V77.79H106.85V67.585H80.8496ZM126.005 78.625L138.157 74.0072L131.783 57.2328L117.83 68.517L126.005 78.625ZM114.464 79.998L106.49 90.265L106.508 90.2796L106.527 90.2942L114.464 79.998ZM119.121 69.5332L122.291 82.1409L122.295 82.1399L119.121 69.5332ZM125.485 68.791L125.745 81.7884L138.963 81.5241L138.477 68.3128L125.485 68.791ZM122.535 65.2285L119.986 77.9761L120.05 77.9889L120.114 78.0011L122.535 65.2285ZM118.045 65.3213L120.47 78.0931L120.498 78.0878L120.526 78.0823L118.045 65.3213ZM115.559 66.0078L103.379 70.5536L108.032 83.0198L120.387 78.078L115.559 66.0078ZM114.575 63.373L108.761 51.7455L98.3098 56.9713L102.396 67.9188L114.575 63.373ZM128.398 65.7295L140.094 60.0537L140.066 59.9964L140.038 59.9394L128.398 65.7295ZM129.289 77.1777L141.295 72.1909L141.24 72.06L141.183 71.9304L129.289 77.1777ZM131.052 78.7178L143.727 81.6033L146.514 69.363L134.378 66.1506L131.052 78.7178ZM130.532 81L132.051 93.911L141.17 92.8382L143.208 83.8855L130.532 81ZM119.325 72.4463L123.904 84.6132L123.939 84.5999L123.975 84.5864L119.325 72.4463ZM116.839 73.8936L126.141 82.9745L126.195 82.9198L126.247 82.8645L116.839 73.8936ZM116.338 76.9736L104.892 83.1369L104.943 83.2316L104.995 83.3255L116.338 76.9736ZM117.024 77.7529L124.789 67.3264L124.77 67.3125L124.751 67.2986L117.024 77.7529ZM121.162 78.1611L124.433 90.7428L124.519 90.7207L124.603 90.6974L121.162 78.1611ZM122.906 77.4932L117.092 65.8656L117.039 65.8925L116.985 65.9199L122.906 77.4932ZM125.485 75.5635L135.21 84.1905L138.485 80.4986V75.5635H125.485ZM125.485 71.5557H138.485V57.8837L124.831 58.5722L125.485 71.5557ZM117.83 68.517C117.608 68.6962 117.614 68.6437 117.857 68.5503C118.123 68.4479 118.482 68.3711 118.861 68.3711V94.3711C124.813 94.3711 130.003 92.1112 134.18 88.733L117.83 68.517ZM118.861 68.3711C119.128 68.3711 119.65 68.4068 120.328 68.6187C121.028 68.837 121.746 69.1976 122.4 69.7019L106.527 90.2942C110.348 93.2392 114.734 94.3711 118.861 94.3711V68.3711ZM122.438 69.7311C123.169 70.2988 124.04 71.2183 124.691 72.5396C125.345 73.8655 125.553 75.1416 125.553 76.1201H99.5527C99.5527 81.7821 102.086 86.8445 106.49 90.265L122.438 69.7311ZM125.553 76.1201C125.553 76.76 125.441 77.6637 125.037 78.6763C124.627 79.7041 124.031 80.5525 123.4 81.185C122.239 82.3496 121.407 82.363 122.291 82.1409L115.951 56.9256C112.456 57.8043 108.34 59.466 104.989 62.8262C101.305 66.5214 99.5527 71.2669 99.5527 76.1201H125.553ZM122.295 82.1399C122.841 82.0023 123.931 81.8247 125.745 81.7884L125.225 55.7936C122.092 55.8563 118.939 56.1735 115.947 56.9266L122.295 82.1399ZM138.477 68.3128C138.367 65.3284 137.517 61.4925 134.705 58.0966C131.838 54.6355 128.115 53.0547 124.956 52.4559L120.114 78.0011C118.848 77.7611 116.562 76.9534 114.68 74.6798C112.851 72.4714 112.53 70.2373 112.494 69.2692L138.477 68.3128ZM125.085 52.481C123.756 52.2152 122.314 52.043 120.791 52.043V78.043C120.357 78.043 120.078 77.9945 119.986 77.9761L125.085 52.481ZM120.791 52.043C119.874 52.043 118.868 52.0835 117.825 52.2062L120.863 78.0281C120.807 78.0347 120.764 78.0387 120.736 78.041C120.707 78.0434 120.691 78.0443 120.687 78.0445C120.681 78.0448 120.714 78.043 120.791 78.043V52.043ZM117.825 52.2062C117.06 52.2962 116.305 52.4161 115.564 52.5603L120.526 78.0823C120.675 78.0533 120.787 78.0371 120.863 78.0281L117.825 52.2062ZM115.62 52.5495C114.091 52.8398 112.407 53.2672 110.731 53.9376L120.387 78.078C120.296 78.1142 120.23 78.1373 120.192 78.1498C120.155 78.1623 120.14 78.1661 120.151 78.1632C120.161 78.1602 120.193 78.1518 120.247 78.1393C120.302 78.1268 120.375 78.1111 120.47 78.0931L115.62 52.5495ZM127.738 61.462L126.755 58.8272L102.396 67.9188L103.379 70.5536L127.738 61.462ZM120.389 75.0006C119.902 75.2443 119.895 75.0742 120.847 75.0742V49.0742C116.9 49.0742 112.712 49.77 108.761 51.7455L120.389 75.0006ZM120.847 75.0742C121.476 75.0742 120.969 75.1886 119.938 74.6894C119.388 74.4236 118.755 74.0122 118.145 73.4146C117.532 72.814 117.074 72.153 116.759 71.5196L140.038 59.9394C135.766 51.3524 127.313 49.0742 120.847 49.0742V75.0742ZM116.703 71.4053C116.069 70.0999 116.011 69.071 116.011 68.7354H142.011C142.011 66.0742 141.544 63.0413 140.094 60.0537L116.703 71.4053ZM116.011 68.7354V74.6543H142.011V68.7354H116.011ZM116.011 74.6543C116.011 75.5547 116.042 76.5942 116.159 77.6566C116.25 78.4849 116.492 80.378 117.395 82.4251L141.183 71.9304C141.592 72.8572 141.78 73.61 141.862 73.9831C141.953 74.3933 141.989 74.687 142.002 74.8063C142.026 75.0275 142.011 75.0157 142.011 74.6543H116.011ZM117.284 82.1646C119.17 86.7069 122.965 90.025 127.725 91.2849L134.378 66.1506C135.665 66.4913 137.156 67.1722 138.533 68.3759C139.911 69.5794 140.785 70.9639 141.295 72.1909L117.284 82.1646ZM118.376 75.8322L117.857 78.1145L143.208 83.8855L143.727 81.6033L118.376 75.8322ZM129.013 68.089C129.53 68.0283 131.428 67.9042 133.705 69.0982C136.216 70.4159 137.579 72.4861 138.157 74.0072L113.853 83.2428C115.136 86.6194 117.606 90.0131 121.626 92.1225C125.412 94.1082 129.222 94.2438 132.051 93.911L129.013 68.089ZM114.746 60.2794C112.841 60.9963 109.902 62.33 107.43 64.9226L126.247 82.8645C125.444 83.7068 124.722 84.1696 124.381 84.368C124.023 84.5765 123.829 84.6416 123.904 84.6132L114.746 60.2794ZM107.536 64.8126C105.159 67.2479 103.078 70.9277 103.078 75.582H129.078C129.078 79.0241 127.504 81.5783 126.141 82.9745L107.536 64.8126ZM103.078 75.582C103.078 77.0862 103.235 80.0608 104.892 83.1369L127.784 70.8103C128.489 72.1195 128.787 73.2746 128.922 73.9991C129.06 74.7387 129.078 75.2979 129.078 75.582H103.078ZM104.995 83.3255C106.067 85.24 107.528 86.8992 109.297 88.2072L124.751 67.2986C125.952 68.1861 126.955 69.3257 127.68 70.6218L104.995 83.3255ZM109.26 88.1795C112.258 90.4118 115.711 91.4023 119.065 91.4023V65.4023C120.861 65.4023 122.954 65.96 124.789 67.3264L109.26 88.1795ZM119.065 91.4023C120.717 91.4023 122.543 91.2342 124.433 90.7428L117.891 65.5794C118.544 65.4097 118.973 65.4023 119.065 65.4023V91.4023ZM124.603 90.6974C126.012 90.3108 127.433 89.7796 128.827 89.0664L116.985 65.9199C117.315 65.751 117.574 65.6651 117.721 65.6249L124.603 90.6974ZM128.72 89.1207C131.046 87.9577 133.293 86.3521 135.21 84.1905L115.76 66.9365C116.317 66.3087 116.845 65.9895 117.092 65.8656L128.72 89.1207ZM138.485 75.5635V71.5557H112.485V75.5635H138.485ZM124.831 58.5722C121.878 58.7211 117.959 59.0486 114.676 60.3062L123.975 84.5864C123.556 84.7468 123.296 84.8053 123.287 84.8072C123.262 84.813 123.355 84.7909 123.597 84.7559C124.097 84.6836 124.919 84.6007 126.14 84.5392L124.831 58.5722ZM139.42 64.2822L126.944 67.9367L132.245 86.0328L147.273 74.6425L139.42 64.2822ZM154.561 81V94H167.561V81H154.561ZM151.035 81H138.035V94H151.035V81ZM149.922 66.8242L139.261 74.2643L139.302 74.3225L139.343 74.3803L149.922 66.8242ZM140.793 66.5273L148.208 77.2052L148.325 77.1243L148.439 77.0409L140.793 66.5273ZM139.717 67.6035L128.9 60.3924L126.717 63.6674V67.6035H139.717ZM139.717 81V94H152.717V81H139.717ZM136.191 81H123.191V94H136.191V81ZM136.191 62.4453V49.4453H123.191V62.4453H136.191ZM138.882 62.4453L151.358 58.7908L148.62 49.4453H138.882V62.4453ZM147.273 74.6425C147.149 74.7363 146.924 74.871 146.626 74.9694C146.333 75.0663 146.132 75.0742 146.1 75.0742V49.0742C140.846 49.0742 135.842 50.682 131.567 53.922L147.273 74.6425ZM146.1 75.0742C146.353 75.0742 146.015 75.1129 145.331 74.8623C144.572 74.5845 143.642 74.0393 142.831 73.1487C141.22 71.3783 141.561 69.9885 141.561 71.3701H167.561C167.561 66.5545 166.491 60.5167 162.059 55.6477C157.416 50.5467 151.255 49.0742 146.1 49.0742V75.0742ZM141.561 71.3701V81H167.561V71.3701H141.561ZM154.561 68H151.035V94H154.561V68ZM164.035 81V71.5928H138.035V81H164.035ZM164.035 71.5928C164.035 68.397 163.563 63.5563 160.5 59.2681L139.343 74.3803C138.494 73.1907 138.195 72.1698 138.097 71.7512C137.999 71.3314 138.035 71.2291 138.035 71.5928H164.035ZM160.582 59.3841C156.615 53.7 150.581 52.043 145.858 52.043V78.043C145.472 78.043 144.415 77.9863 143.065 77.3946C141.602 76.753 140.246 75.6749 139.261 74.2643L160.582 59.3841ZM145.858 52.043C141.653 52.043 137.142 53.1079 133.147 56.0138L148.439 77.0409C147.857 77.4641 147.258 77.7364 146.736 77.8894C146.234 78.0364 145.911 78.043 145.858 78.043V52.043ZM133.378 55.8495C131.732 56.9925 130.169 58.4893 128.9 60.3924L150.533 74.8146C149.809 75.9013 148.963 76.6807 148.208 77.2052L133.378 55.8495ZM126.717 67.6035V81H152.717V67.6035H126.717ZM139.717 68H136.191V94H139.717V68ZM149.191 81V62.4453H123.191V81H149.191ZM136.191 75.4453H138.882V49.4453H136.191V75.4453ZM126.406 66.0998L126.944 67.9367L151.896 60.6277L151.358 58.7908L126.406 66.0998ZM161.11 53.168L170.165 62.4965L170.234 62.429L170.303 62.3604L161.11 53.168ZM164.45 53.168L155.258 62.3604L155.326 62.429L155.396 62.4965L164.45 53.168ZM161.018 62.4453V49.4453H148.018V62.4453H161.018ZM164.543 62.4453H177.543V49.4453H164.543V62.4453ZM164.543 81V94H177.543V81H164.543ZM161.018 81H148.018V94H161.018V81ZM152.081 54.8193C152.081 53.8495 152.23 52.5716 152.762 51.1621C153.309 49.7152 154.163 48.3918 155.258 47.2969L173.643 65.6816C176.903 62.4212 178.081 58.3466 178.081 54.8193H152.081ZM155.258 47.2969C156.353 46.2019 157.676 45.3479 159.123 44.8013C160.533 44.2688 161.81 44.1201 162.78 44.1201V70.1201C166.308 70.1201 170.382 68.9421 173.643 65.6816L155.258 47.2969ZM162.78 44.1201C163.75 44.1201 165.028 44.2688 166.437 44.8013C167.884 45.3479 169.208 46.2019 170.303 47.2969L151.918 65.6816C155.178 68.9421 159.253 70.1201 162.78 70.1201V44.1201ZM170.303 47.2969C171.398 48.3918 172.252 49.7152 172.798 51.1621C173.331 52.5716 173.479 53.8495 173.479 54.8193H147.479C147.479 58.3466 148.658 62.4212 151.918 65.6816L170.303 47.2969ZM173.479 54.8193C173.479 55.7857 173.332 57.085 172.781 58.5262C172.214 60.0107 171.321 61.374 170.165 62.4965L152.056 43.8394C148.657 47.1385 147.479 51.3024 147.479 54.8193H173.479ZM170.303 62.3604C169.208 63.4553 167.884 64.3093 166.437 64.856C165.028 65.3884 163.75 65.5371 162.78 65.5371V39.5371C159.253 39.5371 155.178 40.7152 151.918 43.9756L170.303 62.3604ZM162.78 65.5371C161.81 65.5371 160.533 65.3884 159.123 64.856C157.676 64.3093 156.353 63.4553 155.258 62.3604L173.643 43.9756C170.382 40.7152 166.308 39.5371 162.78 39.5371V65.5371ZM155.396 62.4965C154.239 61.374 153.346 60.0107 152.779 58.5262C152.229 57.085 152.081 55.7857 152.081 54.8193H178.081C178.081 51.3024 176.903 47.1385 173.504 43.8394L155.396 62.4965ZM161.018 75.4453H164.543V49.4453H161.018V75.4453ZM151.543 62.4453V81H177.543V62.4453H151.543ZM164.543 68H161.018V94H164.543V68ZM174.018 81V62.4453H148.018V81H174.018ZM186.122 66.5645L173.931 71.0795L173.965 71.1708L174 71.2616L186.122 66.5645ZM186.326 73.5781V86.5781H197.339L199.149 75.7153L186.326 73.5781ZM173.412 73.5781V60.5781H157.835L160.622 75.9036L173.412 73.5781ZM175.23 77.1221L166.423 86.6842L166.458 86.7157L166.492 86.747L175.23 77.1221ZM185.547 77.1406L198.233 74.3017L194.785 58.8919L180.324 65.2359L185.547 77.1406ZM186.141 79.7939L192.684 91.027L200.904 86.2386L198.827 76.9551L186.141 79.7939ZM180.686 81.2598L179.399 68.3236L179.311 68.3323L179.223 68.3423L180.686 81.2598ZM171.965 78.8848L162.415 87.7054L162.418 87.7084L171.965 78.8848ZM172.41 64.8574L163.125 55.7584L163.094 55.7901L163.063 55.8221L172.41 64.8574ZM183.339 70.8506V83.8506H195.412L196.303 71.8109L183.339 70.8506ZM183.413 69.8486L196.378 70.809L196.413 70.3295V69.8486H183.413ZM180.871 65.3398L186.086 53.4318L186.07 53.4248L186.055 53.4179L180.871 65.3398ZM176.641 65.4326L171.179 53.6355L171.137 53.6551L171.095 53.675L176.641 65.4326ZM174.934 66.6943L184.553 75.4391L184.558 75.4335L184.563 75.4279L174.934 66.6943ZM173.264 70.8506L160.299 69.8973L159.273 83.8506H173.264V70.8506ZM175.39 73.2705C174.533 72.4139 174.112 71.5677 173.931 71.0795L198.313 62.0494C197.39 59.5573 195.942 57.0536 193.774 54.8857L175.39 73.2705ZM174 71.2616C173.782 70.6974 173.697 70.1448 173.697 69.7002H199.697C199.697 67.0537 199.229 64.4107 198.244 61.8673L174 71.2616ZM173.697 69.7002C173.697 69.8792 173.672 70.4257 173.503 71.4409L199.149 75.7153C199.475 73.7618 199.697 71.723 199.697 69.7002H173.697ZM186.326 60.5781H173.412V86.5781H186.326V60.5781ZM160.622 75.9036C161.3 79.6355 163.03 83.5586 166.423 86.6842L184.038 67.56C185.551 68.9538 186.068 70.5143 186.202 71.2526L160.622 75.9036ZM166.492 86.747C170.562 90.4424 175.428 91.4023 179.22 91.4023V65.4023C179.573 65.4023 181.779 65.5088 183.969 67.4971L166.492 86.747ZM179.22 91.4023C183.139 91.4023 187.049 90.6775 190.77 89.0454L180.324 65.2359C180.21 65.2861 179.902 65.4023 179.22 65.4023V91.4023ZM172.861 79.9795L173.454 82.6328L198.827 76.9551L198.233 74.3017L172.861 79.9795ZM179.597 68.5609C179.901 68.3838 180.138 68.2792 180.276 68.2245C180.414 68.1697 180.478 68.1544 180.448 68.1624C180.419 68.1702 180.32 68.195 180.138 68.2264C179.958 68.2576 179.714 68.2923 179.399 68.3236L181.972 94.1959C185.188 93.876 189.113 93.1075 192.684 91.027L179.597 68.5609ZM179.223 68.3423C179.266 68.3375 179.198 68.3464 178.989 68.3555C178.787 68.3643 178.503 68.3711 178.125 68.3711V94.3711C179.415 94.3711 180.81 94.3288 182.148 94.1773L179.223 68.3423ZM178.125 68.3711C178.825 68.3711 179.238 68.513 179.286 68.5306L170.359 92.9499C172.708 93.8086 175.322 94.3711 178.125 94.3711V68.3711ZM179.286 68.5306C179.874 68.7456 180.727 69.2117 181.512 70.0611L162.418 87.7084C164.712 90.1907 167.47 91.8937 170.359 92.9499L179.286 68.5306ZM181.514 70.0641C182.225 70.8331 182.553 71.5773 182.68 71.9812C182.791 72.3338 182.72 72.3236 182.72 71.7598H156.72C156.72 76.7926 157.921 82.8394 162.415 87.7054L181.514 70.0641ZM182.72 71.7598C182.72 71.8214 182.705 72.1817 182.505 72.6958C182.299 73.2249 182.004 73.6371 181.757 73.8927L163.063 55.8221C158.766 60.2679 156.72 65.8805 156.72 71.7598H182.72ZM181.695 73.9565C181.439 74.2178 180.996 74.5578 180.395 74.8037C179.806 75.0445 179.36 75.0742 179.22 75.0742V49.0742C173.19 49.0742 167.516 51.2785 163.125 55.7584L181.695 73.9565ZM179.22 75.0742C179.049 75.0742 178.479 75.048 177.689 74.7527C176.857 74.442 176.051 73.9318 175.39 73.2705L193.774 54.8857C189.555 50.6664 184.221 49.0742 179.22 49.0742V75.0742ZM196.303 71.8109L196.378 70.809L170.449 68.8883L170.374 69.8903L196.303 71.8109ZM196.413 69.8486C196.413 67.1571 195.915 63.8546 194.102 60.6392C192.192 57.2509 189.316 54.8464 186.086 53.4318L175.656 77.2479C174.12 76.5754 172.516 75.2935 171.453 73.4081C170.488 71.6957 170.413 70.2765 170.413 69.8486H196.413ZM186.055 53.4179C183.465 52.2923 180.932 51.9688 178.83 51.9688V77.9688C178.312 77.9688 177.139 77.8926 175.688 77.2618L186.055 53.4179ZM178.83 51.9688C176.297 51.9688 173.685 52.4752 171.179 53.6355L182.102 77.2297C180.932 77.7716 179.78 77.9688 178.83 77.9688V51.9688ZM171.095 53.675C168.907 54.7068 166.947 56.1498 165.304 57.9607L184.563 75.4279C183.885 76.1751 183.063 76.777 182.187 77.1902L171.095 53.675ZM165.314 57.9496C162.089 61.4971 160.603 65.7624 160.299 69.8973L186.229 71.8039C186.205 72.1284 186.118 72.6961 185.837 73.3964C185.547 74.1162 185.114 74.8223 184.553 75.4391L165.314 57.9496ZM173.264 83.8506H183.339V57.8506H173.264V83.8506ZM191.15 76.4541L198.508 65.7363L186.342 57.3851L179.591 70.5067L191.15 76.4541ZM196.16 78.4209L198.297 65.5978L198.284 65.5955L198.27 65.5932L196.16 78.4209ZM200.539 77.9385L207.228 89.0859L207.266 89.0629L207.304 89.0397L200.539 77.9385ZM199.982 73.875L205.39 62.0532L205.365 62.0418L205.341 62.0306L199.982 73.875ZM198.201 73.207L194.158 85.5622L194.227 85.585L194.297 85.6071L198.201 73.207ZM196.16 72.5391L191.971 84.8455L192.044 84.8703L192.117 84.8942L196.16 72.5391ZM192.542 70.8691L184.468 81.0578L184.514 81.0945L184.561 81.1307L192.542 70.8691ZM191.076 69.2549L179.712 75.5682L179.765 75.6638L179.82 75.7585L191.076 69.2549ZM191.188 64.9873L180.059 58.268L180.04 58.2992L180.021 58.3305L191.188 64.9873ZM192.765 63.3545L199.928 74.2025L199.94 74.1949L199.952 74.1871L192.765 63.3545ZM204.584 64.0596L216.059 70.1686L221.419 60.1002L212.133 53.4763L204.584 64.0596ZM203.211 66.6387L196.386 77.7028L208.176 84.9761L214.686 72.7477L203.211 66.6387ZM194.416 66.082L183.804 58.5723L183.739 58.6649L183.675 58.7587L194.416 66.082ZM194.602 68.1602L185.599 77.5382L185.69 77.6263L185.784 77.7126L194.602 68.1602ZM195.863 68.958L190.505 80.8024L190.623 80.8558L190.742 80.9069L195.863 68.958ZM197.645 69.6074L193.741 82.0075L193.773 82.0176L193.806 82.0277L197.645 69.6074ZM199.686 70.2383L203.823 57.9142L203.674 57.8643L203.525 57.818L199.686 70.2383ZM203.285 71.9082L211.406 61.7569L211.395 61.7477L211.383 61.7386L203.285 71.9082ZM202.877 79.9795L195.705 69.1366L195.697 69.1424L195.688 69.1481L202.877 79.9795ZM191.447 80.0352L197.166 68.3603L197.069 68.3129L196.971 68.2671L191.447 80.0352ZM189.833 79.0146L178.273 73.0672L173.532 82.2828L181.459 88.9585L189.833 79.0146ZM183.793 87.1719C186.944 89.3345 190.433 90.6537 194.05 91.2486L198.27 65.5932C198.178 65.578 198.18 65.5696 198.248 65.5964C198.319 65.6244 198.413 65.6714 198.508 65.7363L183.793 87.1719ZM194.023 91.244C195.215 91.4427 196.493 91.5693 197.83 91.5693V65.5693C198.128 65.5693 198.293 65.597 198.297 65.5978L194.023 91.244ZM197.83 91.5693C199.174 91.5693 200.591 91.4413 202.043 91.1273L196.549 65.7145C197.086 65.5984 197.525 65.5693 197.83 65.5693V91.5693ZM202.043 91.1273C203.777 90.7524 205.541 90.098 207.228 89.0859L193.851 66.7911C194.795 66.2243 195.73 65.8915 196.549 65.7145L202.043 91.1273ZM207.304 89.0397C211.842 86.2746 214.727 81.4439 214.727 75.8604H188.727C188.727 74.3531 189.076 72.473 190.143 70.6073C191.2 68.7572 192.6 67.5529 193.774 66.8372L207.304 89.0397ZM214.727 75.8604C214.727 67.265 208.053 63.2714 205.39 62.0532L194.575 85.6968C194.183 85.5177 192.859 84.8702 191.524 83.3502C189.983 81.5959 188.727 78.9847 188.727 75.8604H214.727ZM205.341 62.0306C204.256 61.5398 203.161 61.1396 202.105 60.807L194.297 85.6071C194.432 85.6493 194.525 85.6824 194.583 85.704C194.641 85.7258 194.652 85.7321 194.624 85.7194L205.341 62.0306ZM202.245 60.8519L200.204 60.1839L192.117 84.8942L194.158 85.5622L202.245 60.8519ZM200.35 60.2326C200.065 60.1356 199.842 60.054 199.676 59.9889C199.507 59.9231 199.418 59.8834 199.395 59.8728C199.368 59.8601 199.453 59.8976 199.618 59.9923C199.703 60.0416 199.824 60.1137 199.971 60.2106C200.117 60.3069 200.305 60.4382 200.523 60.6076L184.561 81.1307C187.073 83.0844 190.083 84.2028 191.971 84.8455L200.35 60.2326ZM200.616 60.6804C200.876 60.8867 201.629 61.5339 202.332 62.7513L179.82 75.7585C181.167 78.0891 182.897 79.8126 184.468 81.0578L200.616 60.6804ZM202.44 62.9415C203.465 64.7863 203.612 66.4111 203.612 67.1953H177.612C177.612 69.6123 178.069 72.6102 179.712 75.5682L202.44 62.9415ZM203.612 67.1953C203.612 68.453 203.296 70.0643 202.354 71.6441L180.021 58.3305C178.312 61.1968 177.612 64.2801 177.612 67.1953H203.612ZM202.316 71.7066C201.687 72.7483 200.842 73.5993 199.928 74.2025L185.601 52.5065C183.376 53.9755 181.479 55.9151 180.059 58.268L202.316 71.7066ZM199.952 74.1871C199.48 74.5003 198.956 74.7403 198.426 74.8921C197.905 75.0413 197.488 75.0742 197.236 75.0742V49.0742C193.245 49.0742 189.201 50.1176 185.578 52.5218L199.952 74.1871ZM197.236 75.0742C197.833 75.0742 198.039 75.1407 197.964 75.1205C197.922 75.1089 197.805 75.0738 197.637 74.9959C197.466 74.9172 197.258 74.8026 197.035 74.6429L212.133 53.4763C207.443 50.1306 202.091 49.0742 197.236 49.0742V75.0742ZM193.109 57.9505L191.736 60.5296L214.686 72.7477L216.059 70.1686L193.109 57.9505ZM210.036 55.5745C206.341 53.2948 202.058 51.876 197.366 51.876V77.876C197.063 77.876 196.784 77.8282 196.567 77.7629C196.36 77.7005 196.298 77.6488 196.386 77.7028L210.036 55.5745ZM197.366 51.876C193.643 51.876 187.73 53.0257 183.804 58.5723L205.028 73.5917C203.771 75.3675 202.11 76.5527 200.5 77.2108C199.022 77.815 197.849 77.876 197.366 77.876V51.876ZM183.675 58.7587C181.699 61.6569 181.138 64.7113 181.138 67.1025H207.138C207.138 68.6774 206.762 71.0514 205.157 73.4054L183.675 58.7587ZM181.138 67.1025C181.138 71.2447 182.879 74.9276 185.599 77.5382L203.604 58.7821C204.541 59.681 205.477 60.897 206.159 62.4515C206.847 64.0196 207.138 65.6196 207.138 67.1025H181.138ZM185.784 77.7126C187.385 79.1903 189.08 80.1575 190.505 80.8024L201.221 57.1136C201.608 57.2885 202.462 57.7238 203.419 58.6077L185.784 77.7126ZM190.742 80.9069C191.74 81.3346 192.753 81.6964 193.741 82.0075L201.548 57.2074C201.2 57.0978 201.025 57.0267 200.984 57.0091L190.742 80.9069ZM193.806 82.0277L195.847 82.6585L203.525 57.818L201.484 57.1872L193.806 82.0277ZM195.548 82.5623C195.82 82.6536 196.028 82.7296 196.18 82.7886C196.334 82.8485 196.407 82.8816 196.413 82.8846C196.424 82.8896 196.321 82.843 196.139 82.7365C195.965 82.6353 195.62 82.4227 195.187 82.0778L211.383 61.7386C208.812 59.6909 205.733 58.5556 203.823 57.9142L195.548 82.5623ZM195.164 82.0595C194.675 81.6682 193.889 80.9013 193.236 79.6581C192.555 78.3609 192.233 76.9477 192.233 75.6191H218.233C218.233 69.5791 215.237 64.8219 211.406 61.7569L195.164 82.0595ZM192.233 75.6191C192.233 74.6806 192.447 73.3375 193.208 71.9294C193.966 70.5257 194.96 69.6298 195.705 69.1366L210.049 90.8223C215.222 87.4006 218.233 81.8944 218.233 75.6191H192.233ZM195.688 69.1481C196.95 68.3107 197.865 68.3711 197.552 68.3711V94.3711C201.543 94.3711 206.009 93.5038 210.066 90.8109L195.688 69.1481ZM197.552 68.3711C197.286 68.3711 197.151 68.3452 197.116 68.3377C197.087 68.3312 197.113 68.3346 197.166 68.3603L185.729 91.71C189.518 93.566 193.542 94.3711 197.552 94.3711V68.3711ZM196.971 68.2671C197.299 68.4212 197.737 68.675 198.207 69.0708L181.459 88.9585C182.869 90.146 184.383 91.0801 185.923 91.8032L196.971 68.2671ZM201.393 84.9621L202.71 82.4015L179.591 70.5067L178.273 73.0672L201.393 84.9621Z" fill="#E9967A"/>
</g>
<rect id="fill1" x="38" y="46" width="142" height="6" fill="#E9967A"/>
<path id="logo-text_2" d="M26.4033 17.8164C26.4033 21.7129 24.6097 24.4033 21.0225 25.8877L26.0137 36H22.0244L17.5156 26.8525C16.291 27.0381 15.0107 27.1309 13.6748 27.1309H6.84668V36H3.41406V9.72656H14.1943C18.0785 9.72656 20.9792 10.2585 22.8965 11.3223C25.2344 12.6087 26.4033 14.7734 26.4033 17.8164ZM14.1387 24.0137C16.9095 24.0137 18.9629 23.6302 20.2988 22.8633C21.944 21.9108 22.7666 20.3027 22.7666 18.0391C22.7666 15.0951 20.8617 13.4251 17.0518 13.0293C15.9508 12.9056 14.819 12.8438 13.6562 12.8438H6.84668V24.0137H14.1387ZM46.1455 34.2002C44.4385 35.6475 42.3727 36.3711 39.9482 36.3711C36.9795 36.3711 34.8581 35.5856 33.584 34.0146C32.3841 32.555 31.7842 30.2419 31.7842 27.0752V17.4453H35.3096V26.8525C35.3096 29.0049 35.6312 30.5882 36.2744 31.6025C37.029 32.8024 38.334 33.4023 40.1895 33.4023C42.082 33.4023 43.6468 32.8828 44.8838 31.8438C45.2673 31.5221 45.5889 31.1696 45.8486 30.7861V17.4453H49.374V36H46.6836L46.1455 34.2002ZM59.4492 19.2822C61.3913 17.8102 63.6178 17.0742 66.1289 17.0742C71.7695 17.0742 74.5898 20.1729 74.5898 26.3701V36H71.0645V26.5928C71.0645 24.4528 70.6934 22.8633 69.9512 21.8242C69.1224 20.6367 67.7679 20.043 65.8877 20.043C63.8714 20.043 62.1829 20.5378 60.8223 21.5273C60.377 21.8366 60.0182 22.1953 59.7461 22.6035V36H56.2207V17.4453H58.9111L59.4492 19.2822ZM84.2754 19.2822C86.2174 17.8102 88.444 17.0742 90.9551 17.0742C96.5957 17.0742 99.416 20.1729 99.416 26.3701V36H95.8906V26.5928C95.8906 24.4528 95.5195 22.8633 94.7773 21.8242C93.9486 20.6367 92.5941 20.043 90.7139 20.043C88.6976 20.043 87.0091 20.5378 85.6484 21.5273C85.2031 21.8366 84.8444 22.1953 84.5723 22.6035V36H81.0469V17.4453H83.7373L84.2754 19.2822ZM119.084 19.0781C119.74 19.7337 120.253 20.5625 120.624 21.5645C121.007 22.554 121.199 23.5993 121.199 24.7002C121.199 25.8011 121.076 27.0938 120.828 28.5781H107.914C108.186 30.0749 108.792 31.2562 109.732 32.1221C110.673 32.9756 112.002 33.4023 113.722 33.4023C116.022 33.4023 118.132 32.9818 120.049 32.1406L120.643 34.7939C119.368 35.5361 117.55 36.0247 115.188 36.2598C114.532 36.334 113.678 36.3711 112.627 36.3711C111.576 36.3711 110.475 36.1608 109.324 35.7402C108.174 35.3197 107.221 34.7012 106.467 33.8848C104.97 32.2643 104.222 29.8893 104.222 26.7598C104.222 24.0137 105.118 21.7129 106.912 19.8574C108.73 18.002 111 17.0742 113.722 17.0742C115.961 17.0742 117.748 17.7422 119.084 19.0781ZM117.841 25.8506L117.915 24.8486C117.915 22.585 117.068 21.082 115.373 20.3398C114.804 20.0924 114.124 19.9688 113.332 19.9688C112.54 19.9688 111.811 20.1234 111.143 20.4326C110.487 20.7419 109.918 21.1624 109.436 21.6943C108.446 22.7829 107.889 24.1683 107.766 25.8506H117.841ZM137.045 21.3232C136.29 20.8779 135.517 20.6553 134.726 20.6553C133.946 20.6553 133.297 20.8532 132.777 21.249C132.27 21.6449 131.825 22.1458 131.441 22.752C130.687 23.9147 130.18 25.2754 129.92 26.834V36H126.395V17.4453H129.308L129.901 20.8408C130.854 19.0967 132.072 17.9401 133.557 17.3711C134.089 17.1732 134.571 17.0742 135.004 17.0742C135.449 17.0742 135.777 17.0866 135.987 17.1113C136.198 17.1237 136.402 17.1484 136.6 17.1855C136.995 17.2845 137.41 17.4329 137.843 17.6309L137.045 21.3232ZM141.424 31.4541C142.883 32.4561 144.553 33.1117 146.434 33.4209C147.027 33.5199 147.584 33.5693 148.104 33.5693C148.623 33.5693 149.112 33.5199 149.569 33.4209C150.027 33.3219 150.441 33.1611 150.812 32.9385C151.604 32.4561 152 31.7633 152 30.8604C152 30.0687 151.419 29.4069 150.256 28.875C149.736 28.64 149.143 28.4173 148.475 28.207L146.434 27.5391C144.689 26.9453 143.483 26.3887 142.815 25.8691C142.16 25.3496 141.671 24.8115 141.35 24.2549C141.04 23.6982 140.886 23.0117 140.886 22.1953C140.886 21.3665 141.077 20.6305 141.461 19.9873C141.857 19.3317 142.382 18.7874 143.038 18.3545C144.325 17.501 145.815 17.0742 147.51 17.0742C150.553 17.0742 153.002 17.736 154.857 19.0596L153.484 21.6387C151.579 20.4635 149.631 19.876 147.64 19.876C146.242 19.876 145.258 20.278 144.689 21.082C144.504 21.3542 144.411 21.6943 144.411 22.1025C144.411 22.5107 144.566 22.8633 144.875 23.1602C145.197 23.457 145.617 23.723 146.137 23.958C146.656 24.1807 147.25 24.3971 147.918 24.6074L149.959 25.2383C151.691 25.8197 152.891 26.3763 153.559 26.9082C154.857 27.9473 155.507 29.1842 155.507 30.6191C155.507 32.487 154.721 33.9404 153.15 34.9795C151.753 35.9072 149.978 36.3711 147.825 36.3711C145.574 36.3711 143.539 35.9258 141.721 35.0352C141.115 34.7507 140.576 34.4105 140.106 34.0146L141.424 31.4541ZM177.476 32.8828C175.187 35.196 172.379 36.3525 169.052 36.3525C166.368 36.3525 164.166 35.7279 162.446 34.4785C160.566 33.1055 159.626 31.2191 159.626 28.8193C159.626 25.6527 161.308 23.0488 164.673 21.0078C163.584 19.3997 163.04 18.002 163.04 16.8145C163.04 15.6146 163.232 14.557 163.615 13.6416C163.999 12.7262 164.531 11.9531 165.211 11.3223C166.621 10.0111 168.507 9.35547 170.87 9.35547C173.505 9.35547 175.868 10.1966 177.958 11.8789L176.232 14.625C175.045 13.5859 173.635 12.9056 172.002 12.584C171.507 12.485 171.019 12.4355 170.536 12.4355C169.324 12.4355 168.378 12.7633 167.697 13.4189C167.017 14.0622 166.677 14.9899 166.677 16.2021C166.677 18.1937 169.281 21.3913 174.488 25.7949L177.067 27.9473C178.045 25.8691 178.533 23.5312 178.533 20.9336L182.003 20.8965C182.003 24.3105 181.224 27.3473 179.665 30.0068L184.842 33.9219L182.56 36.5381L177.476 32.8828ZM174.989 30.9902C171.278 28.0833 168.489 25.5723 166.621 23.457C164.877 24.4219 163.826 25.5228 163.467 26.7598C163.331 27.2051 163.263 27.7617 163.263 28.4297C163.263 29.0977 163.436 29.7409 163.782 30.3594C164.129 30.9779 164.586 31.5036 165.155 31.9365C166.33 32.8271 167.617 33.2725 169.015 33.2725C171.451 33.2725 173.443 32.5117 174.989 30.9902ZM24.6592 60.1816C22.6058 58.3509 19.9648 57.4355 16.7363 57.4355C13.8047 57.4355 11.3184 58.4004 9.27734 60.3301C7.21159 62.2721 6.17871 64.6904 6.17871 67.585C6.17871 70.5785 7.24251 73.1143 9.37012 75.1924C11.4854 77.2581 14.0521 78.291 17.0703 78.291C19.2598 78.291 21.443 77.7344 23.6201 76.6211C24.2633 76.2995 24.82 75.9469 25.29 75.5635L26.626 78.124C24.8076 79.6826 22.4635 80.6908 19.5938 81.1484C18.666 81.2969 17.7135 81.3711 16.7363 81.3711C14.7943 81.3711 12.9635 81.0495 11.2441 80.4062C9.52474 79.7507 8.01562 78.8415 6.7168 77.6787C5.43034 76.5036 4.40983 75.1058 3.65527 73.4854C2.91309 71.8649 2.54199 70.2321 2.54199 68.5869C2.54199 66.9417 2.70898 65.5192 3.04297 64.3193C3.38932 63.1071 3.87793 61.9938 4.50879 60.9795C5.13965 59.9528 5.89421 59.0312 6.77246 58.2148C7.65072 57.3984 8.62793 56.7057 9.7041 56.1367C11.9554 54.9492 14.4108 54.3555 17.0703 54.3555C20.6699 54.3555 23.7747 55.3822 26.3848 57.4355L24.6592 60.1816ZM29.4463 71.8896C29.4463 70.4795 29.7246 69.1745 30.2812 67.9746C30.8379 66.7747 31.5924 65.7357 32.5449 64.8574C34.5612 63.002 36.9857 62.0742 39.8184 62.0742C42.6758 62.0742 45.057 62.9587 46.9619 64.7275C48.8916 66.5212 49.8564 68.8281 49.8564 71.6484C49.8564 74.4069 48.8236 76.7262 46.7578 78.6064C44.7539 80.4495 42.3294 81.3711 39.4844 81.3711C36.5898 81.3711 34.2025 80.4928 32.3223 78.7363C30.4049 76.9551 29.4463 74.6729 29.4463 71.8896ZM32.9717 71.6855C32.9717 72.6504 33.1449 73.5472 33.4912 74.376C33.8376 75.1924 34.3138 75.9036 34.9199 76.5098C36.2064 77.7715 37.8392 78.4023 39.8184 78.4023C41.6615 78.4023 43.2077 77.7715 44.457 76.5098C45.7064 75.2728 46.3311 73.7204 46.3311 71.8525C46.3311 69.8981 45.6816 68.2715 44.3828 66.9727C43.0964 65.6862 41.4635 65.043 39.4844 65.043C37.6413 65.043 36.0951 65.68 34.8457 66.9541C33.5964 68.2158 32.9717 69.793 32.9717 71.6855ZM71.0459 67.7148C71.2562 68.7663 71.3613 69.9847 71.3613 71.3701V81H67.8359V71.5928C67.8359 69.3786 67.6442 67.9004 67.2607 67.1582C66.8773 66.4036 66.401 65.8656 65.832 65.5439C65.2754 65.21 64.6383 65.043 63.9209 65.043C63.2035 65.043 62.5973 65.1048 62.1025 65.2285C61.6201 65.3522 61.1562 65.5254 60.7109 65.748C59.8079 66.2305 59.0905 66.8737 58.5586 67.6777V81H55.0332V62.4453H57.7236L58.2432 64.208C59.8512 62.7855 61.7129 62.0742 63.8281 62.0742C66.7845 62.0742 68.8564 63.0267 70.0439 64.9316C71.1325 63.6699 72.5674 62.804 74.3486 62.334C74.9795 62.1608 75.833 62.0742 76.9092 62.0742C77.9977 62.0742 79.0244 62.2845 79.9893 62.7051C80.9541 63.1257 81.7272 63.7318 82.3086 64.5234C83.36 65.9954 83.8857 68.2777 83.8857 71.3701V81H80.3604V71.5928C80.3604 69.3786 80.1686 67.9004 79.7852 67.1582C79.4017 66.4036 78.9255 65.8656 78.3564 65.5439C77.7998 65.21 77.1628 65.043 76.4453 65.043C75.7279 65.043 75.1217 65.111 74.627 65.2471C74.1322 65.3708 73.6621 65.5501 73.2168 65.7852C72.2891 66.2552 71.5654 66.8984 71.0459 67.7148ZM98.0801 81.3711C96.571 81.3711 95.1608 81.235 93.8496 80.9629V89.665H90.3242V62.4453H93.0146L93.5342 64.2266C95.2907 62.7917 97.3997 62.0742 99.8613 62.0742C102.533 62.0742 104.679 62.9154 106.3 64.5977C107.896 66.2676 108.693 68.457 108.693 71.166C108.693 74.1966 107.679 76.6644 105.65 78.5693C103.671 80.4372 101.148 81.3711 98.0801 81.3711ZM93.8496 77.79C95.5938 78.1982 97.0534 78.4023 98.2285 78.4023C99.4036 78.4023 100.412 78.2415 101.253 77.9199C102.094 77.5859 102.805 77.1159 103.387 76.5098C104.574 75.2728 105.168 73.5658 105.168 71.3887C105.168 69.5579 104.686 68.0612 103.721 66.8984C102.694 65.6615 101.327 65.043 99.6201 65.043C97.6657 65.043 96.0638 65.5254 94.8145 66.4902C94.4186 66.8118 94.097 67.1768 93.8496 67.585V77.79ZM126.005 78.625C123.741 80.4557 121.36 81.3711 118.861 81.3711C117.117 81.3711 115.651 80.9134 114.464 79.998C113.19 79.0085 112.553 77.7158 112.553 76.1201C112.553 72.8298 114.742 70.6341 119.121 69.5332C120.89 69.0879 123.011 68.8405 125.485 68.791C125.411 66.7747 124.428 65.5872 122.535 65.2285C121.917 65.1048 121.335 65.043 120.791 65.043C120.247 65.043 119.764 65.0677 119.344 65.1172C118.923 65.1667 118.49 65.2347 118.045 65.3213C117.068 65.5068 116.239 65.7357 115.559 66.0078L114.575 63.373C116.307 62.5072 118.397 62.0742 120.847 62.0742C124.669 62.0742 127.186 63.2926 128.398 65.7295C128.807 66.5706 129.011 67.5726 129.011 68.7354V74.6543C129.011 75.916 129.104 76.7572 129.289 77.1777C129.623 77.9818 130.211 78.4951 131.052 78.7178L130.532 81C128.219 81.2721 126.71 80.4805 126.005 78.625ZM119.325 72.4463C118.175 72.8792 117.346 73.3617 116.839 73.8936C116.332 74.4131 116.078 74.9759 116.078 75.582C116.078 76.1882 116.165 76.652 116.338 76.9736C116.511 77.2829 116.74 77.5426 117.024 77.7529C117.606 78.1859 118.286 78.4023 119.065 78.4023C119.845 78.4023 120.544 78.3219 121.162 78.1611C121.793 77.988 122.374 77.7653 122.906 77.4932C123.945 76.9736 124.805 76.3304 125.485 75.5635V71.5557C122.541 71.7041 120.488 72.001 119.325 72.4463ZM139.42 64.2822C141.362 62.8102 143.589 62.0742 146.1 62.0742C151.74 62.0742 154.561 65.1729 154.561 71.3701V81H151.035V71.5928C151.035 69.4528 150.664 67.8633 149.922 66.8242C149.093 65.6367 147.739 65.043 145.858 65.043C143.842 65.043 142.154 65.5378 140.793 66.5273C140.348 66.8366 139.989 67.1953 139.717 67.6035V81H136.191V62.4453H138.882L139.42 64.2822ZM165.081 54.8193C165.081 55.512 164.871 56.0687 164.45 56.4893C164.03 56.9098 163.473 57.1201 162.78 57.1201C162.088 57.1201 161.531 56.9098 161.11 56.4893C160.69 56.0687 160.479 55.512 160.479 54.8193C160.479 54.1266 160.69 53.5762 161.11 53.168C161.531 52.7474 162.088 52.5371 162.78 52.5371C163.473 52.5371 164.03 52.7474 164.45 53.168C164.871 53.5762 165.081 54.1266 165.081 54.8193ZM161.018 62.4453H164.543V81H161.018V62.4453ZM184.582 64.0781C185.238 64.7337 185.751 65.5625 186.122 66.5645C186.506 67.554 186.697 68.5993 186.697 69.7002C186.697 70.8011 186.574 72.0938 186.326 73.5781H173.412C173.684 75.0749 174.29 76.2562 175.23 77.1221C176.171 77.9756 177.5 78.4023 179.22 78.4023C181.521 78.4023 183.63 77.9818 185.547 77.1406L186.141 79.7939C184.867 80.5361 183.048 81.0247 180.686 81.2598C180.03 81.334 179.176 81.3711 178.125 81.3711C177.074 81.3711 175.973 81.1608 174.822 80.7402C173.672 80.3197 172.719 79.7012 171.965 78.8848C170.468 77.2643 169.72 74.8893 169.72 71.7598C169.72 69.0137 170.617 66.7129 172.41 64.8574C174.229 63.002 176.498 62.0742 179.22 62.0742C181.459 62.0742 183.246 62.7422 184.582 64.0781ZM183.339 70.8506L183.413 69.8486C183.413 67.585 182.566 66.082 180.871 65.3398C180.302 65.0924 179.622 64.9688 178.83 64.9688C178.038 64.9688 177.309 65.1234 176.641 65.4326C175.985 65.7419 175.416 66.1624 174.934 66.6943C173.944 67.7829 173.387 69.1683 173.264 70.8506H183.339ZM191.15 76.4541C192.61 77.4561 194.28 78.1117 196.16 78.4209C196.754 78.5199 197.311 78.5693 197.83 78.5693C198.35 78.5693 198.838 78.5199 199.296 78.4209C199.754 78.3219 200.168 78.1611 200.539 77.9385C201.331 77.4561 201.727 76.7633 201.727 75.8604C201.727 75.0687 201.145 74.4069 199.982 73.875C199.463 73.64 198.869 73.4173 198.201 73.207L196.16 72.5391C194.416 71.9453 193.21 71.3887 192.542 70.8691C191.886 70.3496 191.398 69.8115 191.076 69.2549C190.767 68.6982 190.612 68.0117 190.612 67.1953C190.612 66.3665 190.804 65.6305 191.188 64.9873C191.583 64.3317 192.109 63.7874 192.765 63.3545C194.051 62.501 195.542 62.0742 197.236 62.0742C200.279 62.0742 202.729 62.736 204.584 64.0596L203.211 66.6387C201.306 65.4635 199.358 64.876 197.366 64.876C195.968 64.876 194.985 65.278 194.416 66.082C194.23 66.3542 194.138 66.6943 194.138 67.1025C194.138 67.5107 194.292 67.8633 194.602 68.1602C194.923 68.457 195.344 68.723 195.863 68.958C196.383 69.1807 196.977 69.3971 197.645 69.6074L199.686 70.2383C201.417 70.8197 202.617 71.3763 203.285 71.9082C204.584 72.9473 205.233 74.1842 205.233 75.6191C205.233 77.487 204.448 78.9404 202.877 79.9795C201.479 80.9072 199.704 81.3711 197.552 81.3711C195.3 81.3711 193.266 80.9258 191.447 80.0352C190.841 79.7507 190.303 79.4105 189.833 79.0146L191.15 76.4541Z" fill="white"/>
</g>
</svg>
